<?xml version="1.0" encoding="UTF-8" standalone="no"?>
<!-- Created with Inkscape (http://www.inkscape.org/) -->

<svg
   width="512"
   height="512"
   viewBox="0 0 135.46667 135.46667"
   version="1.1"
   id="svg1"
   inkscape:version="1.3.2 (091e20e, 2023-11-25, custom)"
   sodipodi:docname="frogpattern.svg"
   xmlns:inkscape="http://www.inkscape.org/namespaces/inkscape"
   xmlns:sodipodi="http://sodipodi.sourceforge.net/DTD/sodipodi-0.dtd"
   xmlns="http://www.w3.org/2000/svg"
   xmlns:svg="http://www.w3.org/2000/svg">
  <sodipodi:namedview
     id="namedview1"
     pagecolor="#ffffff"
     bordercolor="#000000"
     borderopacity="0.25"
     inkscape:showpageshadow="2"
     inkscape:pageopacity="0.0"
     inkscape:pagecheckerboard="0"
     inkscape:deskcolor="#d1d1d1"
     inkscape:document-units="mm"
     inkscape:zoom="1.0343421"
     inkscape:cx="232.51496"
     inkscape:cy="319.52679"
     inkscape:window-width="1920"
     inkscape:window-height="1017"
     inkscape:window-x="-8"
     inkscape:window-y="-8"
     inkscape:window-maximized="1"
     inkscape:current-layer="g1" />
  <defs
     id="defs1" />
  <g
     inkscape:label="Layer 1"
     inkscape:groupmode="layer"
     id="layer1">
    <g
       id="g1"
       transform="translate(-5.2916669)">
      <g
         style="fill:none;fill-opacity:1;stroke:#ffffff;stroke-width:2.08842;stroke-dasharray:none;stroke-opacity:1"
         id="g3-6-4-5-0-1-4-2-6"
         transform="matrix(0.09193535,0,0,0.09193535,63.842492,132.89946)">
        <path
           d="m 28.9476,130.091 c -1.2696,-2.65 -2.9457,-5.264 -5.7293,-6.205 -2.7624,-0.935 -6.0982,-1.306 -9.9541,-0.96 -7.97235,0.715 -14.6933,6.853 -13.00114,12.082 1.34717,4.163 7.57386,4.663 12.25604,4.805 2.3377,0.07 3.7832,2.188 4.0946,4.505 0.4921,3.663 3.1142,6.717 10.5405,4.673 0.3697,-0.102 0.7264,-0.265 1.0428,-0.482 1.9574,-1.339 4.4968,-3.515 5.2582,-7.154 0.526,-2.515 -0.7877,-4.936 -2.1789,-7.096 -0.8621,-1.338 -1.6401,-2.73 -2.3287,-4.168 z"
           fill="#f2f2f2"
           id="path1-9-4-8-1-9-4-8-9"
           style="fill:none;fill-opacity:1;stroke:#ffffff;stroke-width:2.08842;stroke-dasharray:none;stroke-opacity:1" />
        <path
           d="m 147.013,186.898 c -2.81,0.061 -5.741,0.647 -7.594,2.761 -1.145,1.307 -2.004,2.802 -2.488,4.456 -3.744,12.798 9.958,19.509 13.969,10.885 0.653,-1.403 2.489,-2.178 3.817,-1.383 11.054,6.614 22.818,3.015 18.556,-7.275 -1.739,-4.197 -4.423,-7.241 -7.566,-9.286 -2.266,-1.474 -5.085,-1.552 -7.755,-1.133 -3.625,0.57 -7.28,0.895 -10.939,0.975 z"
           fill="#f2f2f2"
           id="path2-6-2-1-1-6-1-9-3-0"
           style="fill:none;fill-opacity:1;stroke:#ffffff;stroke-width:2.08842;stroke-dasharray:none;stroke-opacity:1" />
        <path
           d="m 258.222,135.654 c -1.719,2.426 -3.523,5.239 -2.463,8.018 2.334,6.122 11.63,9.681 15.387,9.681 6.509,0 11.864,-1.323 10.57,-7.23 -0.248,-1.136 0.297,-2.341 1.4,-2.709 3.717,-1.237 8.738,-3.322 8.738,-7.155 0,-7.071 -6.903,-7.668 -16.346,-7.668 -2.993,0 -7.464,0.382 -11.456,1.842 -2.513,0.919 -4.283,3.038 -5.83,5.221 z"
           fill="#f2f2f2"
           id="path3-22-8-3-6-0-4-5-0-6"
           style="fill:none;fill-opacity:1;stroke:#ffffff;stroke-width:2.08842;stroke-dasharray:none;stroke-opacity:1" />
        <path
           d="m 90.0134,24.345 c -0.2525,-0.6144 -0.4935,-1.1402 -0.7281,-1.5946 -2.0712,-4.0123 -2.2555,-8.1441 2.0263,-9.5776 L 117.734,4.32705 c 17.76,-5.94554 37.042,-5.47188 54.488,1.33846 L 239.56,31.9515 c 9.586,4.7061 15.661,14.4554 15.661,25.1347 v 56.5928 c 0,10.679 -6.075,20.428 -15.661,25.134 l -62.611,30.736 c -20.011,9.824 -43.445,9.824 -63.457,0 L 50.8819,138.813 C 41.2954,134.107 35.2207,124.358 35.2207,113.679 V 85.0213 c 0,-7.8556 -5.0267,-14.645 -10.4791,-20.3002 -0.9658,-1.0017 -1.8707,-2.0625 -2.7086,-3.1765 -2.9984,-3.9859 -5.1407,-8.6524 -6.1536,-13.7263 -0.4321,-2.164 -0.6587,-4.4022 -0.6587,-6.6932 0,-1.4028 0.085,-2.7858 0.25,-4.1441 C 17.515,20.1579 31.8459,7.12507 49.2207,7.12507 l 0.1135,1.8e-4 C 64.7539,7.17768 77.7983,17.915 81.8863,31.9515 83.9836,39.153 87.5461,46.458 94.296,49.729 l 17.779,8.6159 c 6.511,3.1548 14.15,1.6596 20.898,-0.9471 3.8,-1.4679 7.93,-2.2727 12.248,-2.2727 18.777,0 34,15.2223 34,34 0,8.4603 -3.09,16.1989 -8.203,22.1489 -1.689,1.965 -1.905,4.91 -0.194,6.856 1.715,1.949 4.706,2.155 6.461,0.242 6.763,-7.368 10.848,-16.864 11.493,-26.9384 0.746,-11.6457 -3.164,-23.1107 -10.872,-31.873 -7.707,-8.7622 -18.579,-14.1039 -30.225,-14.85 -6.037,-0.3867 -12.025,0.478 -17.614,2.4744 -5.939,2.1214 -12.556,2.7979 -18.224,0.0334 l -9.251,-4.5119 C 96.7945,39.8789 93.2315,34.0637 91.3019,27.909 90.9246,26.7056 90.4949,25.5165 90.0134,24.345 Z"
           fill="#f2f2f2"
           id="path4-33-3-5-8-2-2-0-7-3"
           style="fill:none;fill-opacity:1;stroke:#ffffff;stroke-width:2.08842;stroke-dasharray:none;stroke-opacity:1" />
        <path
           d="m 73.2207,41.1251 c 0,13.2548 -10.7451,24 -24,24 -13.2548,0 -24,-10.7452 -24,-24 0,-13.2549 10.7452,-24 24,-24 13.2549,0 24,10.7451 24,24 z"
           fill="#000000"
           id="path5-5-1-7-2-8-7-6-2-3"
           style="fill:none;fill-opacity:1;stroke:#ffffff;stroke-width:2.08842;stroke-dasharray:none;stroke-opacity:1" />
        <path
           d="m 169.221,89.1251 c 0,13.2549 -10.745,23.9999 -24,23.9999 -13.255,0 -24,-10.745 -24,-23.9999 0,-13.2549 10.745,-24 24,-24 13.255,0 24,10.7451 24,24 z"
           fill="#000000"
           id="path6-6-7-3-4-7-0-9-9-1"
           style="fill:none;fill-opacity:1;stroke:#ffffff;stroke-width:2.08842;stroke-dasharray:none;stroke-opacity:1" />
        <path
           d="m 69.2207,76.6019 c 0,-4.3581 4.5824,-7.1958 8.4839,-5.2537 l 26.0914,12.9877 c 1.993,0.9923 3.253,3.0271 3.253,5.2537 0,4.3581 -4.582,7.1958 -8.4836,5.2538 L 72.4742,81.8556 c -1.9934,-0.9922 -3.2535,-3.0271 -3.2535,-5.2537 z"
           fill="#000000"
           id="path7-0-9-4-8-9-7-7-6-6"
           style="fill:none;fill-opacity:1;stroke:#ffffff;stroke-width:2.08842;stroke-dasharray:none;stroke-opacity:1" />
      </g>
      <g
         style="fill:none;fill-opacity:1;stroke:#ffffff;stroke-width:2.08842;stroke-dasharray:none;stroke-opacity:1"
         id="g3-6-4-5-0-1-4-2-6-8"
         transform="matrix(0.09193535,0,0,0.09193535,63.842492,-2.567187)">
        <path
           d="m 28.9476,130.091 c -1.2696,-2.65 -2.9457,-5.264 -5.7293,-6.205 -2.7624,-0.935 -6.0982,-1.306 -9.9541,-0.96 -7.97235,0.715 -14.6933,6.853 -13.00114,12.082 1.34717,4.163 7.57386,4.663 12.25604,4.805 2.3377,0.07 3.7832,2.188 4.0946,4.505 0.4921,3.663 3.1142,6.717 10.5405,4.673 0.3697,-0.102 0.7264,-0.265 1.0428,-0.482 1.9574,-1.339 4.4968,-3.515 5.2582,-7.154 0.526,-2.515 -0.7877,-4.936 -2.1789,-7.096 -0.8621,-1.338 -1.6401,-2.73 -2.3287,-4.168 z"
           fill="#f2f2f2"
           id="path1-9-4-8-1-9-4-8-9-5"
           style="fill:none;fill-opacity:1;stroke:#ffffff;stroke-width:2.08842;stroke-dasharray:none;stroke-opacity:1" />
        <path
           d="m 147.013,186.898 c -2.81,0.061 -5.741,0.647 -7.594,2.761 -1.145,1.307 -2.004,2.802 -2.488,4.456 -3.744,12.798 9.958,19.509 13.969,10.885 0.653,-1.403 2.489,-2.178 3.817,-1.383 11.054,6.614 22.818,3.015 18.556,-7.275 -1.739,-4.197 -4.423,-7.241 -7.566,-9.286 -2.266,-1.474 -5.085,-1.552 -7.755,-1.133 -3.625,0.57 -7.28,0.895 -10.939,0.975 z"
           fill="#f2f2f2"
           id="path2-6-2-1-1-6-1-9-3-0-3"
           style="fill:none;fill-opacity:1;stroke:#ffffff;stroke-width:2.08842;stroke-dasharray:none;stroke-opacity:1" />
        <path
           d="m 258.222,135.654 c -1.719,2.426 -3.523,5.239 -2.463,8.018 2.334,6.122 11.63,9.681 15.387,9.681 6.509,0 11.864,-1.323 10.57,-7.23 -0.248,-1.136 0.297,-2.341 1.4,-2.709 3.717,-1.237 8.738,-3.322 8.738,-7.155 0,-7.071 -6.903,-7.668 -16.346,-7.668 -2.993,0 -7.464,0.382 -11.456,1.842 -2.513,0.919 -4.283,3.038 -5.83,5.221 z"
           fill="#f2f2f2"
           id="path3-22-8-3-6-0-4-5-0-6-7"
           style="fill:none;fill-opacity:1;stroke:#ffffff;stroke-width:2.08842;stroke-dasharray:none;stroke-opacity:1" />
        <path
           d="m 90.0134,24.345 c -0.2525,-0.6144 -0.4935,-1.1402 -0.7281,-1.5946 -2.0712,-4.0123 -2.2555,-8.1441 2.0263,-9.5776 L 117.734,4.32705 c 17.76,-5.94554 37.042,-5.47188 54.488,1.33846 L 239.56,31.9515 c 9.586,4.7061 15.661,14.4554 15.661,25.1347 v 56.5928 c 0,10.679 -6.075,20.428 -15.661,25.134 l -62.611,30.736 c -20.011,9.824 -43.445,9.824 -63.457,0 L 50.8819,138.813 C 41.2954,134.107 35.2207,124.358 35.2207,113.679 V 85.0213 c 0,-7.8556 -5.0267,-14.645 -10.4791,-20.3002 -0.9658,-1.0017 -1.8707,-2.0625 -2.7086,-3.1765 -2.9984,-3.9859 -5.1407,-8.6524 -6.1536,-13.7263 -0.4321,-2.164 -0.6587,-4.4022 -0.6587,-6.6932 0,-1.4028 0.085,-2.7858 0.25,-4.1441 C 17.515,20.1579 31.8459,7.12507 49.2207,7.12507 l 0.1135,1.8e-4 C 64.7539,7.17768 77.7983,17.915 81.8863,31.9515 83.9836,39.153 87.5461,46.458 94.296,49.729 l 17.779,8.6159 c 6.511,3.1548 14.15,1.6596 20.898,-0.9471 3.8,-1.4679 7.93,-2.2727 12.248,-2.2727 18.777,0 34,15.2223 34,34 0,8.4603 -3.09,16.1989 -8.203,22.1489 -1.689,1.965 -1.905,4.91 -0.194,6.856 1.715,1.949 4.706,2.155 6.461,0.242 6.763,-7.368 10.848,-16.864 11.493,-26.9384 0.746,-11.6457 -3.164,-23.1107 -10.872,-31.873 -7.707,-8.7622 -18.579,-14.1039 -30.225,-14.85 -6.037,-0.3867 -12.025,0.478 -17.614,2.4744 -5.939,2.1214 -12.556,2.7979 -18.224,0.0334 l -9.251,-4.5119 C 96.7945,39.8789 93.2315,34.0637 91.3019,27.909 90.9246,26.7056 90.4949,25.5165 90.0134,24.345 Z"
           fill="#f2f2f2"
           id="path4-33-3-5-8-2-2-0-7-3-1"
           style="fill:none;fill-opacity:1;stroke:#ffffff;stroke-width:2.08842;stroke-dasharray:none;stroke-opacity:1" />
        <path
           d="m 73.2207,41.1251 c 0,13.2548 -10.7451,24 -24,24 -13.2548,0 -24,-10.7452 -24,-24 0,-13.2549 10.7452,-24 24,-24 13.2549,0 24,10.7451 24,24 z"
           fill="#000000"
           id="path5-5-1-7-2-8-7-6-2-3-7"
           style="fill:none;fill-opacity:1;stroke:#ffffff;stroke-width:2.08842;stroke-dasharray:none;stroke-opacity:1" />
        <path
           d="m 169.221,89.1251 c 0,13.2549 -10.745,23.9999 -24,23.9999 -13.255,0 -24,-10.745 -24,-23.9999 0,-13.2549 10.745,-24 24,-24 13.255,0 24,10.7451 24,24 z"
           fill="#000000"
           id="path6-6-7-3-4-7-0-9-9-1-2"
           style="fill:none;fill-opacity:1;stroke:#ffffff;stroke-width:2.08842;stroke-dasharray:none;stroke-opacity:1" />
        <path
           d="m 69.2207,76.6019 c 0,-4.3581 4.5824,-7.1958 8.4839,-5.2537 l 26.0914,12.9877 c 1.993,0.9923 3.253,3.0271 3.253,5.2537 0,4.3581 -4.582,7.1958 -8.4836,5.2538 L 72.4742,81.8556 c -1.9934,-0.9922 -3.2535,-3.0271 -3.2535,-5.2537 z"
           fill="#000000"
           id="path7-0-9-4-8-9-7-7-6-6-3"
           style="fill:none;fill-opacity:1;stroke:#ffffff;stroke-width:2.08842;stroke-dasharray:none;stroke-opacity:1" />
      </g>
    </g>
    <g
       style="fill:none;fill-opacity:1;stroke:#ffffff;stroke-width:2.08842;stroke-dasharray:none;stroke-opacity:1"
       id="g3-6-4-5-0-1-4-2-6-8-8"
       transform="matrix(0.09193535,0,0,0.09193535,103.80597,102.9261)">
      <path
         d="m 28.9476,130.091 c -1.2696,-2.65 -2.9457,-5.264 -5.7293,-6.205 -2.7624,-0.935 -6.0982,-1.306 -9.9541,-0.96 -7.97235,0.715 -14.6933,6.853 -13.00114,12.082 1.34717,4.163 7.57386,4.663 12.25604,4.805 2.3377,0.07 3.7832,2.188 4.0946,4.505 0.4921,3.663 3.1142,6.717 10.5405,4.673 0.3697,-0.102 0.7264,-0.265 1.0428,-0.482 1.9574,-1.339 4.4968,-3.515 5.2582,-7.154 0.526,-2.515 -0.7877,-4.936 -2.1789,-7.096 -0.8621,-1.338 -1.6401,-2.73 -2.3287,-4.168 z"
         fill="#f2f2f2"
         id="path1-9-4-8-1-9-4-8-9-5-8"
         style="fill:none;fill-opacity:1;stroke:#ffffff;stroke-width:2.08842;stroke-dasharray:none;stroke-opacity:1" />
      <path
         d="m 147.013,186.898 c -2.81,0.061 -5.741,0.647 -7.594,2.761 -1.145,1.307 -2.004,2.802 -2.488,4.456 -3.744,12.798 9.958,19.509 13.969,10.885 0.653,-1.403 2.489,-2.178 3.817,-1.383 11.054,6.614 22.818,3.015 18.556,-7.275 -1.739,-4.197 -4.423,-7.241 -7.566,-9.286 -2.266,-1.474 -5.085,-1.552 -7.755,-1.133 -3.625,0.57 -7.28,0.895 -10.939,0.975 z"
         fill="#f2f2f2"
         id="path2-6-2-1-1-6-1-9-3-0-3-5"
         style="fill:none;fill-opacity:1;stroke:#ffffff;stroke-width:2.08842;stroke-dasharray:none;stroke-opacity:1" />
      <path
         d="m 258.222,135.654 c -1.719,2.426 -3.523,5.239 -2.463,8.018 2.334,6.122 11.63,9.681 15.387,9.681 6.509,0 11.864,-1.323 10.57,-7.23 -0.248,-1.136 0.297,-2.341 1.4,-2.709 3.717,-1.237 8.738,-3.322 8.738,-7.155 0,-7.071 -6.903,-7.668 -16.346,-7.668 -2.993,0 -7.464,0.382 -11.456,1.842 -2.513,0.919 -4.283,3.038 -5.83,5.221 z"
         fill="#f2f2f2"
         id="path3-22-8-3-6-0-4-5-0-6-7-4"
         style="fill:none;fill-opacity:1;stroke:#ffffff;stroke-width:2.08842;stroke-dasharray:none;stroke-opacity:1" />
      <path
         d="m 90.0134,24.345 c -0.2525,-0.6144 -0.4935,-1.1402 -0.7281,-1.5946 -2.0712,-4.0123 -2.2555,-8.1441 2.0263,-9.5776 L 117.734,4.32705 c 17.76,-5.94554 37.042,-5.47188 54.488,1.33846 L 239.56,31.9515 c 9.586,4.7061 15.661,14.4554 15.661,25.1347 v 56.5928 c 0,10.679 -6.075,20.428 -15.661,25.134 l -62.611,30.736 c -20.011,9.824 -43.445,9.824 -63.457,0 L 50.8819,138.813 C 41.2954,134.107 35.2207,124.358 35.2207,113.679 V 85.0213 c 0,-7.8556 -5.0267,-14.645 -10.4791,-20.3002 -0.9658,-1.0017 -1.8707,-2.0625 -2.7086,-3.1765 -2.9984,-3.9859 -5.1407,-8.6524 -6.1536,-13.7263 -0.4321,-2.164 -0.6587,-4.4022 -0.6587,-6.6932 0,-1.4028 0.085,-2.7858 0.25,-4.1441 C 17.515,20.1579 31.8459,7.12507 49.2207,7.12507 l 0.1135,1.8e-4 C 64.7539,7.17768 77.7983,17.915 81.8863,31.9515 83.9836,39.153 87.5461,46.458 94.296,49.729 l 17.779,8.6159 c 6.511,3.1548 14.15,1.6596 20.898,-0.9471 3.8,-1.4679 7.93,-2.2727 12.248,-2.2727 18.777,0 34,15.2223 34,34 0,8.4603 -3.09,16.1989 -8.203,22.1489 -1.689,1.965 -1.905,4.91 -0.194,6.856 1.715,1.949 4.706,2.155 6.461,0.242 6.763,-7.368 10.848,-16.864 11.493,-26.9384 0.746,-11.6457 -3.164,-23.1107 -10.872,-31.873 -7.707,-8.7622 -18.579,-14.1039 -30.225,-14.85 -6.037,-0.3867 -12.025,0.478 -17.614,2.4744 -5.939,2.1214 -12.556,2.7979 -18.224,0.0334 l -9.251,-4.5119 C 96.7945,39.8789 93.2315,34.0637 91.3019,27.909 90.9246,26.7056 90.4949,25.5165 90.0134,24.345 Z"
         fill="#f2f2f2"
         id="path4-33-3-5-8-2-2-0-7-3-1-5"
         style="fill:none;fill-opacity:1;stroke:#ffffff;stroke-width:2.08842;stroke-dasharray:none;stroke-opacity:1" />
      <path
         d="m 73.2207,41.1251 c 0,13.2548 -10.7451,24 -24,24 -13.2548,0 -24,-10.7452 -24,-24 0,-13.2549 10.7452,-24 24,-24 13.2549,0 24,10.7451 24,24 z"
         fill="#000000"
         id="path5-5-1-7-2-8-7-6-2-3-7-7"
         style="fill:none;fill-opacity:1;stroke:#ffffff;stroke-width:2.08842;stroke-dasharray:none;stroke-opacity:1" />
      <path
         d="m 169.221,89.1251 c 0,13.2549 -10.745,23.9999 -24,23.9999 -13.255,0 -24,-10.745 -24,-23.9999 0,-13.2549 10.745,-24 24,-24 13.255,0 24,10.7451 24,24 z"
         fill="#000000"
         id="path6-6-7-3-4-7-0-9-9-1-2-8"
         style="fill:none;fill-opacity:1;stroke:#ffffff;stroke-width:2.08842;stroke-dasharray:none;stroke-opacity:1" />
      <path
         d="m 69.2207,76.6019 c 0,-4.3581 4.5824,-7.1958 8.4839,-5.2537 l 26.0914,12.9877 c 1.993,0.9923 3.253,3.0271 3.253,5.2537 0,4.3581 -4.582,7.1958 -8.4836,5.2538 L 72.4742,81.8556 c -1.9934,-0.9922 -3.2535,-3.0271 -3.2535,-5.2537 z"
         fill="#000000"
         id="path7-0-9-4-8-9-7-7-6-6-3-3"
         style="fill:none;fill-opacity:1;stroke:#ffffff;stroke-width:2.08842;stroke-dasharray:none;stroke-opacity:1" />
    </g>
    <g
       style="fill:none;fill-opacity:1;stroke:#ffffff;stroke-width:2.08842;stroke-dasharray:none;stroke-opacity:1"
       id="g3-6-4-5-0-1-4-2-6-8-8-6"
       transform="matrix(0.09193535,0,0,0.09193535,47.86574,70.656926)" />
    <g
       style="fill:none;fill-opacity:1;stroke:#ffffff;stroke-width:2.08842;stroke-dasharray:none;stroke-opacity:1"
       id="g3-6-4-5-0-1-4-2-6-8-8-4"
       transform="matrix(0.09193535,0,0,0.09193535,12.60282,12.95895)">
      <path
         d="m 28.9476,130.091 c -1.2696,-2.65 -2.9457,-5.264 -5.7293,-6.205 -2.7624,-0.935 -6.0982,-1.306 -9.9541,-0.96 -7.97235,0.715 -14.6933,6.853 -13.00114,12.082 1.34717,4.163 7.57386,4.663 12.25604,4.805 2.3377,0.07 3.7832,2.188 4.0946,4.505 0.4921,3.663 3.1142,6.717 10.5405,4.673 0.3697,-0.102 0.7264,-0.265 1.0428,-0.482 1.9574,-1.339 4.4968,-3.515 5.2582,-7.154 0.526,-2.515 -0.7877,-4.936 -2.1789,-7.096 -0.8621,-1.338 -1.6401,-2.73 -2.3287,-4.168 z"
         fill="#f2f2f2"
         id="path1-9-4-8-1-9-4-8-9-5-8-3"
         style="fill:none;fill-opacity:1;stroke:#ffffff;stroke-width:2.08842;stroke-dasharray:none;stroke-opacity:1" />
      <path
         d="m 147.013,186.898 c -2.81,0.061 -5.741,0.647 -7.594,2.761 -1.145,1.307 -2.004,2.802 -2.488,4.456 -3.744,12.798 9.958,19.509 13.969,10.885 0.653,-1.403 2.489,-2.178 3.817,-1.383 11.054,6.614 22.818,3.015 18.556,-7.275 -1.739,-4.197 -4.423,-7.241 -7.566,-9.286 -2.266,-1.474 -5.085,-1.552 -7.755,-1.133 -3.625,0.57 -7.28,0.895 -10.939,0.975 z"
         fill="#f2f2f2"
         id="path2-6-2-1-1-6-1-9-3-0-3-5-8"
         style="fill:none;fill-opacity:1;stroke:#ffffff;stroke-width:2.08842;stroke-dasharray:none;stroke-opacity:1" />
      <path
         d="m 258.222,135.654 c -1.719,2.426 -3.523,5.239 -2.463,8.018 2.334,6.122 11.63,9.681 15.387,9.681 6.509,0 11.864,-1.323 10.57,-7.23 -0.248,-1.136 0.297,-2.341 1.4,-2.709 3.717,-1.237 8.738,-3.322 8.738,-7.155 0,-7.071 -6.903,-7.668 -16.346,-7.668 -2.993,0 -7.464,0.382 -11.456,1.842 -2.513,0.919 -4.283,3.038 -5.83,5.221 z"
         fill="#f2f2f2"
         id="path3-22-8-3-6-0-4-5-0-6-7-4-5"
         style="fill:none;fill-opacity:1;stroke:#ffffff;stroke-width:2.08842;stroke-dasharray:none;stroke-opacity:1" />
      <path
         d="m 90.0134,24.345 c -0.2525,-0.6144 -0.4935,-1.1402 -0.7281,-1.5946 -2.0712,-4.0123 -2.2555,-8.1441 2.0263,-9.5776 L 117.734,4.32705 c 17.76,-5.94554 37.042,-5.47188 54.488,1.33846 L 239.56,31.9515 c 9.586,4.7061 15.661,14.4554 15.661,25.1347 v 56.5928 c 0,10.679 -6.075,20.428 -15.661,25.134 l -62.611,30.736 c -20.011,9.824 -43.445,9.824 -63.457,0 L 50.8819,138.813 C 41.2954,134.107 35.2207,124.358 35.2207,113.679 V 85.0213 c 0,-7.8556 -5.0267,-14.645 -10.4791,-20.3002 -0.9658,-1.0017 -1.8707,-2.0625 -2.7086,-3.1765 -2.9984,-3.9859 -5.1407,-8.6524 -6.1536,-13.7263 -0.4321,-2.164 -0.6587,-4.4022 -0.6587,-6.6932 0,-1.4028 0.085,-2.7858 0.25,-4.1441 C 17.515,20.1579 31.8459,7.12507 49.2207,7.12507 l 0.1135,1.8e-4 C 64.7539,7.17768 77.7983,17.915 81.8863,31.9515 83.9836,39.153 87.5461,46.458 94.296,49.729 l 17.779,8.6159 c 6.511,3.1548 14.15,1.6596 20.898,-0.9471 3.8,-1.4679 7.93,-2.2727 12.248,-2.2727 18.777,0 34,15.2223 34,34 0,8.4603 -3.09,16.1989 -8.203,22.1489 -1.689,1.965 -1.905,4.91 -0.194,6.856 1.715,1.949 4.706,2.155 6.461,0.242 6.763,-7.368 10.848,-16.864 11.493,-26.9384 0.746,-11.6457 -3.164,-23.1107 -10.872,-31.873 -7.707,-8.7622 -18.579,-14.1039 -30.225,-14.85 -6.037,-0.3867 -12.025,0.478 -17.614,2.4744 -5.939,2.1214 -12.556,2.7979 -18.224,0.0334 l -9.251,-4.5119 C 96.7945,39.8789 93.2315,34.0637 91.3019,27.909 90.9246,26.7056 90.4949,25.5165 90.0134,24.345 Z"
         fill="#f2f2f2"
         id="path4-33-3-5-8-2-2-0-7-3-1-5-6"
         style="fill:none;fill-opacity:1;stroke:#ffffff;stroke-width:2.08842;stroke-dasharray:none;stroke-opacity:1" />
      <path
         d="m 73.2207,41.1251 c 0,13.2548 -10.7451,24 -24,24 -13.2548,0 -24,-10.7452 -24,-24 0,-13.2549 10.7452,-24 24,-24 13.2549,0 24,10.7451 24,24 z"
         fill="#000000"
         id="path5-5-1-7-2-8-7-6-2-3-7-7-3"
         style="fill:none;fill-opacity:1;stroke:#ffffff;stroke-width:2.08842;stroke-dasharray:none;stroke-opacity:1" />
      <path
         d="m 169.221,89.1251 c 0,13.2549 -10.745,23.9999 -24,23.9999 -13.255,0 -24,-10.745 -24,-23.9999 0,-13.2549 10.745,-24 24,-24 13.255,0 24,10.7451 24,24 z"
         fill="#000000"
         id="path6-6-7-3-4-7-0-9-9-1-2-8-3"
         style="fill:none;fill-opacity:1;stroke:#ffffff;stroke-width:2.08842;stroke-dasharray:none;stroke-opacity:1" />
      <path
         d="m 69.2207,76.6019 c 0,-4.3581 4.5824,-7.1958 8.4839,-5.2537 l 26.0914,12.9877 c 1.993,0.9923 3.253,3.0271 3.253,5.2537 0,4.3581 -4.582,7.1958 -8.4836,5.2538 L 72.4742,81.8556 c -1.9934,-0.9922 -3.2535,-3.0271 -3.2535,-5.2537 z"
         fill="#000000"
         id="path7-0-9-4-8-9-7-7-6-6-3-3-8"
         style="fill:none;fill-opacity:1;stroke:#ffffff;stroke-width:2.08842;stroke-dasharray:none;stroke-opacity:1" />
    </g>
    <g
       id="g8"
       transform="translate(9.2269314,-7.3742735)"
       style="stroke:#ffffff;stroke-opacity:1">
      <path
         d="m 28.9476,130.091 c -1.2696,-2.65 -2.9457,-5.264 -5.7293,-6.205 -2.7624,-0.935 -6.0982,-1.306 -9.9541,-0.96 -7.97235,0.715 -14.6933,6.853 -13.00114,12.082 1.34717,4.163 7.57386,4.663 12.25604,4.805 2.3377,0.07 3.7832,2.188 4.0946,4.505 0.4921,3.663 3.1142,6.717 10.5405,4.673 0.3697,-0.102 0.7264,-0.265 1.0428,-0.482 1.9574,-1.339 4.4968,-3.515 5.2582,-7.154 0.526,-2.515 -0.7877,-4.936 -2.1789,-7.096 -0.8621,-1.338 -1.6401,-2.73 -2.3287,-4.168 z"
         fill="#f2f2f2"
         id="path1-9-4-8-1-9-4-8-9-5-8-5"
         style="fill:none;fill-opacity:1;stroke:#ffffff;stroke-width:2.08842;stroke-dasharray:none;stroke-opacity:1"
         transform="matrix(0.09193535,0,0,0.09193535,47.865739,70.656926)" />
      <path
         d="m 147.013,186.898 c -2.81,0.061 -5.741,0.647 -7.594,2.761 -1.145,1.307 -2.004,2.802 -2.488,4.456 -3.744,12.798 9.958,19.509 13.969,10.885 0.653,-1.403 2.489,-2.178 3.817,-1.383 11.054,6.614 22.818,3.015 18.556,-7.275 -1.739,-4.197 -4.423,-7.241 -7.566,-9.286 -2.266,-1.474 -5.085,-1.552 -7.755,-1.133 -3.625,0.57 -7.28,0.895 -10.939,0.975 z"
         fill="#f2f2f2"
         id="path2-6-2-1-1-6-1-9-3-0-3-5-5"
         style="fill:none;fill-opacity:1;stroke:#ffffff;stroke-width:2.08842;stroke-dasharray:none;stroke-opacity:1"
         transform="matrix(0.09193535,0,0,0.09193535,47.865739,70.656926)" />
      <path
         d="m 258.222,135.654 c -1.719,2.426 -3.523,5.239 -2.463,8.018 2.334,6.122 11.63,9.681 15.387,9.681 6.509,0 11.864,-1.323 10.57,-7.23 -0.248,-1.136 0.297,-2.341 1.4,-2.709 3.717,-1.237 8.738,-3.322 8.738,-7.155 0,-7.071 -6.903,-7.668 -16.346,-7.668 -2.993,0 -7.464,0.382 -11.456,1.842 -2.513,0.919 -4.283,3.038 -5.83,5.221 z"
         fill="#f2f2f2"
         id="path3-22-8-3-6-0-4-5-0-6-7-4-8"
         style="fill:none;fill-opacity:1;stroke:#ffffff;stroke-width:2.08842;stroke-dasharray:none;stroke-opacity:1"
         transform="matrix(0.09193535,0,0,0.09193535,47.865739,70.656926)" />
      <path
         d="m 90.0134,24.345 c -0.2525,-0.6144 -0.4935,-1.1402 -0.7281,-1.5946 -2.0712,-4.0123 -2.2555,-8.1441 2.0263,-9.5776 L 117.734,4.32705 c 17.76,-5.94554 37.042,-5.47188 54.488,1.33846 L 239.56,31.9515 c 9.586,4.7061 15.661,14.4554 15.661,25.1347 v 56.5928 c 0,10.679 -6.075,20.428 -15.661,25.134 l -62.611,30.736 c -20.011,9.824 -43.445,9.824 -63.457,0 L 50.8819,138.813 C 41.2954,134.107 35.2207,124.358 35.2207,113.679 V 85.0213 c 0,-7.8556 -5.0267,-14.645 -10.4791,-20.3002 -0.9658,-1.0017 -1.8707,-2.0625 -2.7086,-3.1765 -2.9984,-3.9859 -5.1407,-8.6524 -6.1536,-13.7263 -0.4321,-2.164 -0.6587,-4.4022 -0.6587,-6.6932 0,-1.4028 0.085,-2.7858 0.25,-4.1441 C 17.515,20.1579 31.8459,7.12507 49.2207,7.12507 l 0.1135,1.8e-4 C 64.7539,7.17768 77.7983,17.915 81.8863,31.9515 83.9836,39.153 87.5461,46.458 94.296,49.729 l 17.779,8.6159 c 6.511,3.1548 14.15,1.6596 20.898,-0.9471 3.8,-1.4679 7.93,-2.2727 12.248,-2.2727 18.777,0 34,15.2223 34,34 0,8.4603 -3.09,16.1989 -8.203,22.1489 -1.689,1.965 -1.905,4.91 -0.194,6.856 1.715,1.949 4.706,2.155 6.461,0.242 6.763,-7.368 10.848,-16.864 11.493,-26.9384 0.746,-11.6457 -3.164,-23.1107 -10.872,-31.873 -7.707,-8.7622 -18.579,-14.1039 -30.225,-14.85 -6.037,-0.3867 -12.025,0.478 -17.614,2.4744 -5.939,2.1214 -12.556,2.7979 -18.224,0.0334 l -9.251,-4.5119 C 96.7945,39.8789 93.2315,34.0637 91.3019,27.909 90.9246,26.7056 90.4949,25.5165 90.0134,24.345 Z"
         fill="#f2f2f2"
         id="path4-33-3-5-8-2-2-0-7-3-1-5-3"
         style="fill:none;fill-opacity:1;stroke:#ffffff;stroke-width:2.08842;stroke-dasharray:none;stroke-opacity:1"
         transform="matrix(0.09193535,0,0,0.09193535,47.865739,70.656926)" />
      <path
         d="m 73.2207,41.1251 c 0,13.2548 -10.7451,24 -24,24 -13.2548,0 -24,-10.7452 -24,-24 0,-13.2549 10.7452,-24 24,-24 13.2549,0 24,10.7451 24,24 z"
         fill="#000000"
         id="path5-5-1-7-2-8-7-6-2-3-7-7-5"
         style="fill:none;fill-opacity:1;stroke:#ffffff;stroke-width:2.08842;stroke-dasharray:none;stroke-opacity:1"
         transform="matrix(0.09193535,0,0,0.09193535,47.865739,70.656926)" />
      <path
         d="m 169.221,89.1251 c 0,13.2549 -10.745,23.9999 -24,23.9999 -13.255,0 -24,-10.745 -24,-23.9999 0,-13.2549 10.745,-24 24,-24 13.255,0 24,10.7451 24,24 z"
         fill="#000000"
         id="path6-6-7-3-4-7-0-9-9-1-2-8-0"
         style="fill:none;fill-opacity:1;stroke:#ffffff;stroke-width:2.08842;stroke-dasharray:none;stroke-opacity:1"
         transform="matrix(0.09193535,0,0,0.09193535,47.865739,70.656926)" />
      <path
         d="m 69.2207,76.6019 c 0,-4.3581 4.5824,-7.1958 8.4839,-5.2537 l 26.0914,12.9877 c 1.993,0.9923 3.253,3.0271 3.253,5.2537 0,4.3581 -4.582,7.1958 -8.4836,5.2538 L 72.4742,81.8556 c -1.9934,-0.9922 -3.2535,-3.0271 -3.2535,-5.2537 z"
         fill="#000000"
         id="path7-0-9-4-8-9-7-7-6-6-3-3-1"
         style="fill:none;fill-opacity:1;stroke:#ffffff;stroke-width:2.08842;stroke-dasharray:none;stroke-opacity:1"
         transform="matrix(0.09193535,0,0,0.09193535,47.865739,70.656926)" />
      <g
         id="g7"
         style="stroke:#ffffff;stroke-opacity:1">
        <g
           style="fill:none;fill-opacity:1;stroke:#ffffff;stroke-width:2.08842;stroke-dasharray:none;stroke-opacity:1"
           id="g3-6-4-5-0-1-4-2-6-8-8-6-9"
           transform="matrix(0.09193535,0,0,0.09193535,9.1372366,107.77032)">
          <path
             d="m 28.9476,130.091 c -1.2696,-2.65 -2.9457,-5.264 -5.7293,-6.205 -2.7624,-0.935 -6.0982,-1.306 -9.9541,-0.96 -7.97235,0.715 -14.6933,6.853 -13.00114,12.082 1.34717,4.163 7.57386,4.663 12.25604,4.805 2.3377,0.07 3.7832,2.188 4.0946,4.505 0.4921,3.663 3.1142,6.717 10.5405,4.673 0.3697,-0.102 0.7264,-0.265 1.0428,-0.482 1.9574,-1.339 4.4968,-3.515 5.2582,-7.154 0.526,-2.515 -0.7877,-4.936 -2.1789,-7.096 -0.8621,-1.338 -1.6401,-2.73 -2.3287,-4.168 z"
             fill="#f2f2f2"
             id="path1-9-4-8-1-9-4-8-9-5-8-5-2"
             style="fill:none;fill-opacity:1;stroke:#ffffff;stroke-width:2.08842;stroke-dasharray:none;stroke-opacity:1" />
          <path
             d="m 147.013,186.898 c -2.81,0.061 -5.741,0.647 -7.594,2.761 -1.145,1.307 -2.004,2.802 -2.488,4.456 -3.744,12.798 9.958,19.509 13.969,10.885 0.653,-1.403 2.489,-2.178 3.817,-1.383 11.054,6.614 22.818,3.015 18.556,-7.275 -1.739,-4.197 -4.423,-7.241 -7.566,-9.286 -2.266,-1.474 -5.085,-1.552 -7.755,-1.133 -3.625,0.57 -7.28,0.895 -10.939,0.975 z"
             fill="#f2f2f2"
             id="path2-6-2-1-1-6-1-9-3-0-3-5-5-7"
             style="fill:none;fill-opacity:1;stroke:#ffffff;stroke-width:2.08842;stroke-dasharray:none;stroke-opacity:1" />
          <path
             d="m 258.222,135.654 c -1.719,2.426 -3.523,5.239 -2.463,8.018 2.334,6.122 11.63,9.681 15.387,9.681 6.509,0 11.864,-1.323 10.57,-7.23 -0.248,-1.136 0.297,-2.341 1.4,-2.709 3.717,-1.237 8.738,-3.322 8.738,-7.155 0,-7.071 -6.903,-7.668 -16.346,-7.668 -2.993,0 -7.464,0.382 -11.456,1.842 -2.513,0.919 -4.283,3.038 -5.83,5.221 z"
             fill="#f2f2f2"
             id="path3-22-8-3-6-0-4-5-0-6-7-4-8-8"
             style="fill:none;fill-opacity:1;stroke:#ffffff;stroke-width:2.08842;stroke-dasharray:none;stroke-opacity:1" />
          <path
             d="m 90.0134,24.345 c -0.2525,-0.6144 -0.4935,-1.1402 -0.7281,-1.5946 -2.0712,-4.0123 -2.2555,-8.1441 2.0263,-9.5776 L 117.734,4.32705 c 17.76,-5.94554 37.042,-5.47188 54.488,1.33846 L 239.56,31.9515 c 9.586,4.7061 15.661,14.4554 15.661,25.1347 v 56.5928 c 0,10.679 -6.075,20.428 -15.661,25.134 l -62.611,30.736 c -20.011,9.824 -43.445,9.824 -63.457,0 L 50.8819,138.813 C 41.2954,134.107 35.2207,124.358 35.2207,113.679 V 85.0213 c 0,-7.8556 -5.0267,-14.645 -10.4791,-20.3002 -0.9658,-1.0017 -1.8707,-2.0625 -2.7086,-3.1765 -2.9984,-3.9859 -5.1407,-8.6524 -6.1536,-13.7263 -0.4321,-2.164 -0.6587,-4.4022 -0.6587,-6.6932 0,-1.4028 0.085,-2.7858 0.25,-4.1441 C 17.515,20.1579 31.8459,7.12507 49.2207,7.12507 l 0.1135,1.8e-4 C 64.7539,7.17768 77.7983,17.915 81.8863,31.9515 83.9836,39.153 87.5461,46.458 94.296,49.729 l 17.779,8.6159 c 6.511,3.1548 14.15,1.6596 20.898,-0.9471 3.8,-1.4679 7.93,-2.2727 12.248,-2.2727 18.777,0 34,15.2223 34,34 0,8.4603 -3.09,16.1989 -8.203,22.1489 -1.689,1.965 -1.905,4.91 -0.194,6.856 1.715,1.949 4.706,2.155 6.461,0.242 6.763,-7.368 10.848,-16.864 11.493,-26.9384 0.746,-11.6457 -3.164,-23.1107 -10.872,-31.873 -7.707,-8.7622 -18.579,-14.1039 -30.225,-14.85 -6.037,-0.3867 -12.025,0.478 -17.614,2.4744 -5.939,2.1214 -12.556,2.7979 -18.224,0.0334 l -9.251,-4.5119 C 96.7945,39.8789 93.2315,34.0637 91.3019,27.909 90.9246,26.7056 90.4949,25.5165 90.0134,24.345 Z"
             fill="#f2f2f2"
             id="path4-33-3-5-8-2-2-0-7-3-1-5-3-1"
             style="fill:none;fill-opacity:1;stroke:#ffffff;stroke-width:2.08842;stroke-dasharray:none;stroke-opacity:1" />
          <path
             d="m 73.2207,41.1251 c 0,13.2548 -10.7451,24 -24,24 -13.2548,0 -24,-10.7452 -24,-24 0,-13.2549 10.7452,-24 24,-24 13.2549,0 24,10.7451 24,24 z"
             fill="#000000"
             id="path5-5-1-7-2-8-7-6-2-3-7-7-5-0"
             style="fill:none;fill-opacity:1;stroke:#ffffff;stroke-width:2.08842;stroke-dasharray:none;stroke-opacity:1" />
          <path
             d="m 169.221,89.1251 c 0,13.2549 -10.745,23.9999 -24,23.9999 -13.255,0 -24,-10.745 -24,-23.9999 0,-13.2549 10.745,-24 24,-24 13.255,0 24,10.7451 24,24 z"
             fill="#000000"
             id="path6-6-7-3-4-7-0-9-9-1-2-8-0-5"
             style="fill:none;fill-opacity:1;stroke:#ffffff;stroke-width:2.08842;stroke-dasharray:none;stroke-opacity:1" />
          <path
             d="m 69.2207,76.6019 c 0,-4.3581 4.5824,-7.1958 8.4839,-5.2537 l 26.0914,12.9877 c 1.993,0.9923 3.253,3.0271 3.253,5.2537 0,4.3581 -4.582,7.1958 -8.4836,5.2538 L 72.4742,81.8556 c -1.9934,-0.9922 -3.2535,-3.0271 -3.2535,-5.2537 z"
             fill="#000000"
             id="path7-0-9-4-8-9-7-7-6-6-3-3-1-4"
             style="fill:none;fill-opacity:1;stroke:#ffffff;stroke-width:2.08842;stroke-dasharray:none;stroke-opacity:1" />
        </g>
      </g>
      <g
         style="fill:none;fill-opacity:1;stroke:#ffffff;stroke-width:2.08842;stroke-dasharray:none;stroke-opacity:1"
         id="g3-6-4-5-0-1-4-2-6-8-8-4-3"
         transform="matrix(0.09193535,0,0,0.09193535,84.321119,30.979057)">
        <path
           d="m 28.9476,130.091 c -1.2696,-2.65 -2.9457,-5.264 -5.7293,-6.205 -2.7624,-0.935 -6.0982,-1.306 -9.9541,-0.96 -7.97235,0.715 -14.6933,6.853 -13.00114,12.082 1.34717,4.163 7.57386,4.663 12.25604,4.805 2.3377,0.07 3.7832,2.188 4.0946,4.505 0.4921,3.663 3.1142,6.717 10.5405,4.673 0.3697,-0.102 0.7264,-0.265 1.0428,-0.482 1.9574,-1.339 4.4968,-3.515 5.2582,-7.154 0.526,-2.515 -0.7877,-4.936 -2.1789,-7.096 -0.8621,-1.338 -1.6401,-2.73 -2.3287,-4.168 z"
           fill="#f2f2f2"
           id="path1-9-4-8-1-9-4-8-9-5-8-3-2"
           style="fill:none;fill-opacity:1;stroke:#ffffff;stroke-width:2.08842;stroke-dasharray:none;stroke-opacity:1" />
        <path
           d="m 147.013,186.898 c -2.81,0.061 -5.741,0.647 -7.594,2.761 -1.145,1.307 -2.004,2.802 -2.488,4.456 -3.744,12.798 9.958,19.509 13.969,10.885 0.653,-1.403 2.489,-2.178 3.817,-1.383 11.054,6.614 22.818,3.015 18.556,-7.275 -1.739,-4.197 -4.423,-7.241 -7.566,-9.286 -2.266,-1.474 -5.085,-1.552 -7.755,-1.133 -3.625,0.57 -7.28,0.895 -10.939,0.975 z"
           fill="#f2f2f2"
           id="path2-6-2-1-1-6-1-9-3-0-3-5-8-8"
           style="fill:none;fill-opacity:1;stroke:#ffffff;stroke-width:2.08842;stroke-dasharray:none;stroke-opacity:1" />
        <path
           d="m 258.222,135.654 c -1.719,2.426 -3.523,5.239 -2.463,8.018 2.334,6.122 11.63,9.681 15.387,9.681 6.509,0 11.864,-1.323 10.57,-7.23 -0.248,-1.136 0.297,-2.341 1.4,-2.709 3.717,-1.237 8.738,-3.322 8.738,-7.155 0,-7.071 -6.903,-7.668 -16.346,-7.668 -2.993,0 -7.464,0.382 -11.456,1.842 -2.513,0.919 -4.283,3.038 -5.83,5.221 z"
           fill="#f2f2f2"
           id="path3-22-8-3-6-0-4-5-0-6-7-4-5-5"
           style="fill:none;fill-opacity:1;stroke:#ffffff;stroke-width:2.08842;stroke-dasharray:none;stroke-opacity:1" />
        <path
           d="m 90.0134,24.345 c -0.2525,-0.6144 -0.4935,-1.1402 -0.7281,-1.5946 -2.0712,-4.0123 -2.2555,-8.1441 2.0263,-9.5776 L 117.734,4.32705 c 17.76,-5.94554 37.042,-5.47188 54.488,1.33846 L 239.56,31.9515 c 9.586,4.7061 15.661,14.4554 15.661,25.1347 v 56.5928 c 0,10.679 -6.075,20.428 -15.661,25.134 l -62.611,30.736 c -20.011,9.824 -43.445,9.824 -63.457,0 L 50.8819,138.813 C 41.2954,134.107 35.2207,124.358 35.2207,113.679 V 85.0213 c 0,-7.8556 -5.0267,-14.645 -10.4791,-20.3002 -0.9658,-1.0017 -1.8707,-2.0625 -2.7086,-3.1765 -2.9984,-3.9859 -5.1407,-8.6524 -6.1536,-13.7263 -0.4321,-2.164 -0.6587,-4.4022 -0.6587,-6.6932 0,-1.4028 0.085,-2.7858 0.25,-4.1441 C 17.515,20.1579 31.8459,7.12507 49.2207,7.12507 l 0.1135,1.8e-4 C 64.7539,7.17768 77.7983,17.915 81.8863,31.9515 83.9836,39.153 87.5461,46.458 94.296,49.729 l 17.779,8.6159 c 6.511,3.1548 14.15,1.6596 20.898,-0.9471 3.8,-1.4679 7.93,-2.2727 12.248,-2.2727 18.777,0 34,15.2223 34,34 0,8.4603 -3.09,16.1989 -8.203,22.1489 -1.689,1.965 -1.905,4.91 -0.194,6.856 1.715,1.949 4.706,2.155 6.461,0.242 6.763,-7.368 10.848,-16.864 11.493,-26.9384 0.746,-11.6457 -3.164,-23.1107 -10.872,-31.873 -7.707,-8.7622 -18.579,-14.1039 -30.225,-14.85 -6.037,-0.3867 -12.025,0.478 -17.614,2.4744 -5.939,2.1214 -12.556,2.7979 -18.224,0.0334 l -9.251,-4.5119 C 96.7945,39.8789 93.2315,34.0637 91.3019,27.909 90.9246,26.7056 90.4949,25.5165 90.0134,24.345 Z"
           fill="#f2f2f2"
           id="path4-33-3-5-8-2-2-0-7-3-1-5-6-6"
           style="fill:none;fill-opacity:1;stroke:#ffffff;stroke-width:2.08842;stroke-dasharray:none;stroke-opacity:1" />
        <path
           d="m 73.2207,41.1251 c 0,13.2548 -10.7451,24 -24,24 -13.2548,0 -24,-10.7452 -24,-24 0,-13.2549 10.7452,-24 24,-24 13.2549,0 24,10.7451 24,24 z"
           fill="#000000"
           id="path5-5-1-7-2-8-7-6-2-3-7-7-3-0"
           style="fill:none;fill-opacity:1;stroke:#ffffff;stroke-width:2.08842;stroke-dasharray:none;stroke-opacity:1" />
        <path
           d="m 169.221,89.1251 c 0,13.2549 -10.745,23.9999 -24,23.9999 -13.255,0 -24,-10.745 -24,-23.9999 0,-13.2549 10.745,-24 24,-24 13.255,0 24,10.7451 24,24 z"
           fill="#000000"
           id="path6-6-7-3-4-7-0-9-9-1-2-8-3-8"
           style="fill:none;fill-opacity:1;stroke:#ffffff;stroke-width:2.08842;stroke-dasharray:none;stroke-opacity:1" />
        <path
           d="m 69.2207,76.6019 c 0,-4.3581 4.5824,-7.1958 8.4839,-5.2537 l 26.0914,12.9877 c 1.993,0.9923 3.253,3.0271 3.253,5.2537 0,4.3581 -4.582,7.1958 -8.4836,5.2538 L 72.4742,81.8556 c -1.9934,-0.9922 -3.2535,-3.0271 -3.2535,-5.2537 z"
           fill="#000000"
           id="path7-0-9-4-8-9-7-7-6-6-3-3-8-9"
           style="fill:none;fill-opacity:1;stroke:#ffffff;stroke-width:2.08842;stroke-dasharray:none;stroke-opacity:1" />
      </g>
    </g>
    <g
       style="fill:none;fill-opacity:1;stroke:#ffffff;stroke-width:2.08842;stroke-dasharray:none;stroke-opacity:1"
       id="g3-6-4-5-0-1-4-2-6-8-8-4-3-9"
       transform="matrix(0.09193535,0,0,0.09193535,124.97927,53.889798)">
      <path
         d="m 28.9476,130.091 c -1.2696,-2.65 -2.9457,-5.264 -5.7293,-6.205 -2.7624,-0.935 -6.0982,-1.306 -9.9541,-0.96 -7.97235,0.715 -14.6933,6.853 -13.00114,12.082 1.34717,4.163 7.57386,4.663 12.25604,4.805 2.3377,0.07 3.7832,2.188 4.0946,4.505 0.4921,3.663 3.1142,6.717 10.5405,4.673 0.3697,-0.102 0.7264,-0.265 1.0428,-0.482 1.9574,-1.339 4.4968,-3.515 5.2582,-7.154 0.526,-2.515 -0.7877,-4.936 -2.1789,-7.096 -0.8621,-1.338 -1.6401,-2.73 -2.3287,-4.168 z"
         fill="#f2f2f2"
         id="path1-9-4-8-1-9-4-8-9-5-8-3-2-1"
         style="fill:none;fill-opacity:1;stroke:#ffffff;stroke-width:2.08842;stroke-dasharray:none;stroke-opacity:1" />
      <path
         d="m 147.013,186.898 c -2.81,0.061 -5.741,0.647 -7.594,2.761 -1.145,1.307 -2.004,2.802 -2.488,4.456 -3.744,12.798 9.958,19.509 13.969,10.885 0.653,-1.403 2.489,-2.178 3.817,-1.383 11.054,6.614 22.818,3.015 18.556,-7.275 -1.739,-4.197 -4.423,-7.241 -7.566,-9.286 -2.266,-1.474 -5.085,-1.552 -7.755,-1.133 -3.625,0.57 -7.28,0.895 -10.939,0.975 z"
         fill="#f2f2f2"
         id="path2-6-2-1-1-6-1-9-3-0-3-5-8-8-3"
         style="fill:none;fill-opacity:1;stroke:#ffffff;stroke-width:2.08842;stroke-dasharray:none;stroke-opacity:1" />
      <path
         d="m 258.222,135.654 c -1.719,2.426 -3.523,5.239 -2.463,8.018 2.334,6.122 11.63,9.681 15.387,9.681 6.509,0 11.864,-1.323 10.57,-7.23 -0.248,-1.136 0.297,-2.341 1.4,-2.709 3.717,-1.237 8.738,-3.322 8.738,-7.155 0,-7.071 -6.903,-7.668 -16.346,-7.668 -2.993,0 -7.464,0.382 -11.456,1.842 -2.513,0.919 -4.283,3.038 -5.83,5.221 z"
         fill="#f2f2f2"
         id="path3-22-8-3-6-0-4-5-0-6-7-4-5-5-4"
         style="fill:none;fill-opacity:1;stroke:#ffffff;stroke-width:2.08842;stroke-dasharray:none;stroke-opacity:1" />
      <path
         d="m 90.0134,24.345 c -0.2525,-0.6144 -0.4935,-1.1402 -0.7281,-1.5946 -2.0712,-4.0123 -2.2555,-8.1441 2.0263,-9.5776 L 117.734,4.32705 c 17.76,-5.94554 37.042,-5.47188 54.488,1.33846 L 239.56,31.9515 c 9.586,4.7061 15.661,14.4554 15.661,25.1347 v 56.5928 c 0,10.679 -6.075,20.428 -15.661,25.134 l -62.611,30.736 c -20.011,9.824 -43.445,9.824 -63.457,0 L 50.8819,138.813 C 41.2954,134.107 35.2207,124.358 35.2207,113.679 V 85.0213 c 0,-7.8556 -5.0267,-14.645 -10.4791,-20.3002 -0.9658,-1.0017 -1.8707,-2.0625 -2.7086,-3.1765 -2.9984,-3.9859 -5.1407,-8.6524 -6.1536,-13.7263 -0.4321,-2.164 -0.6587,-4.4022 -0.6587,-6.6932 0,-1.4028 0.085,-2.7858 0.25,-4.1441 C 17.515,20.1579 31.8459,7.12507 49.2207,7.12507 l 0.1135,1.8e-4 C 64.7539,7.17768 77.7983,17.915 81.8863,31.9515 83.9836,39.153 87.5461,46.458 94.296,49.729 l 17.779,8.6159 c 6.511,3.1548 14.15,1.6596 20.898,-0.9471 3.8,-1.4679 7.93,-2.2727 12.248,-2.2727 18.777,0 34,15.2223 34,34 0,8.4603 -3.09,16.1989 -8.203,22.1489 -1.689,1.965 -1.905,4.91 -0.194,6.856 1.715,1.949 4.706,2.155 6.461,0.242 6.763,-7.368 10.848,-16.864 11.493,-26.9384 0.746,-11.6457 -3.164,-23.1107 -10.872,-31.873 -7.707,-8.7622 -18.579,-14.1039 -30.225,-14.85 -6.037,-0.3867 -12.025,0.478 -17.614,2.4744 -5.939,2.1214 -12.556,2.7979 -18.224,0.0334 l -9.251,-4.5119 C 96.7945,39.8789 93.2315,34.0637 91.3019,27.909 90.9246,26.7056 90.4949,25.5165 90.0134,24.345 Z"
         fill="#f2f2f2"
         id="path4-33-3-5-8-2-2-0-7-3-1-5-6-6-3"
         style="fill:none;fill-opacity:1;stroke:#ffffff;stroke-width:2.08842;stroke-dasharray:none;stroke-opacity:1" />
      <path
         d="m 73.2207,41.1251 c 0,13.2548 -10.7451,24 -24,24 -13.2548,0 -24,-10.7452 -24,-24 0,-13.2549 10.7452,-24 24,-24 13.2549,0 24,10.7451 24,24 z"
         fill="#000000"
         id="path5-5-1-7-2-8-7-6-2-3-7-7-3-0-4"
         style="fill:none;fill-opacity:1;stroke:#ffffff;stroke-width:2.08842;stroke-dasharray:none;stroke-opacity:1" />
      <path
         d="m 169.221,89.1251 c 0,13.2549 -10.745,23.9999 -24,23.9999 -13.255,0 -24,-10.745 -24,-23.9999 0,-13.2549 10.745,-24 24,-24 13.255,0 24,10.7451 24,24 z"
         fill="#000000"
         id="path6-6-7-3-4-7-0-9-9-1-2-8-3-8-7"
         style="fill:none;fill-opacity:1;stroke:#ffffff;stroke-width:2.08842;stroke-dasharray:none;stroke-opacity:1" />
      <path
         d="m 69.2207,76.6019 c 0,-4.3581 4.5824,-7.1958 8.4839,-5.2537 l 26.0914,12.9877 c 1.993,0.9923 3.253,3.0271 3.253,5.2537 0,4.3581 -4.582,7.1958 -8.4836,5.2538 L 72.4742,81.8556 c -1.9934,-0.9922 -3.2535,-3.0271 -3.2535,-5.2537 z"
         fill="#000000"
         id="path7-0-9-4-8-9-7-7-6-6-3-3-8-9-0"
         style="fill:none;fill-opacity:1;stroke:#ffffff;stroke-width:2.08842;stroke-dasharray:none;stroke-opacity:1" />
    </g>
    <g
       style="fill:none;fill-opacity:1;stroke:#ffffff;stroke-width:2.08842;stroke-dasharray:none;stroke-opacity:1"
       id="g3-6-4-5-0-1-4-2-6-8-8-4-3-9-1"
       transform="matrix(0.09193535,0,0,0.09193535,-10.48733,53.889798)">
      <path
         d="m 28.9476,130.091 c -1.2696,-2.65 -2.9457,-5.264 -5.7293,-6.205 -2.7624,-0.935 -6.0982,-1.306 -9.9541,-0.96 -7.97235,0.715 -14.6933,6.853 -13.00114,12.082 1.34717,4.163 7.57386,4.663 12.25604,4.805 2.3377,0.07 3.7832,2.188 4.0946,4.505 0.4921,3.663 3.1142,6.717 10.5405,4.673 0.3697,-0.102 0.7264,-0.265 1.0428,-0.482 1.9574,-1.339 4.4968,-3.515 5.2582,-7.154 0.526,-2.515 -0.7877,-4.936 -2.1789,-7.096 -0.8621,-1.338 -1.6401,-2.73 -2.3287,-4.168 z"
         fill="#f2f2f2"
         id="path1-9-4-8-1-9-4-8-9-5-8-3-2-1-0"
         style="fill:none;fill-opacity:1;stroke:#ffffff;stroke-width:2.08842;stroke-dasharray:none;stroke-opacity:1" />
      <path
         d="m 147.013,186.898 c -2.81,0.061 -5.741,0.647 -7.594,2.761 -1.145,1.307 -2.004,2.802 -2.488,4.456 -3.744,12.798 9.958,19.509 13.969,10.885 0.653,-1.403 2.489,-2.178 3.817,-1.383 11.054,6.614 22.818,3.015 18.556,-7.275 -1.739,-4.197 -4.423,-7.241 -7.566,-9.286 -2.266,-1.474 -5.085,-1.552 -7.755,-1.133 -3.625,0.57 -7.28,0.895 -10.939,0.975 z"
         fill="#f2f2f2"
         id="path2-6-2-1-1-6-1-9-3-0-3-5-8-8-3-5"
         style="fill:none;fill-opacity:1;stroke:#ffffff;stroke-width:2.08842;stroke-dasharray:none;stroke-opacity:1" />
      <path
         d="m 258.222,135.654 c -1.719,2.426 -3.523,5.239 -2.463,8.018 2.334,6.122 11.63,9.681 15.387,9.681 6.509,0 11.864,-1.323 10.57,-7.23 -0.248,-1.136 0.297,-2.341 1.4,-2.709 3.717,-1.237 8.738,-3.322 8.738,-7.155 0,-7.071 -6.903,-7.668 -16.346,-7.668 -2.993,0 -7.464,0.382 -11.456,1.842 -2.513,0.919 -4.283,3.038 -5.83,5.221 z"
         fill="#f2f2f2"
         id="path3-22-8-3-6-0-4-5-0-6-7-4-5-5-4-3"
         style="fill:none;fill-opacity:1;stroke:#ffffff;stroke-width:2.08842;stroke-dasharray:none;stroke-opacity:1" />
      <path
         d="m 90.0134,24.345 c -0.2525,-0.6144 -0.4935,-1.1402 -0.7281,-1.5946 -2.0712,-4.0123 -2.2555,-8.1441 2.0263,-9.5776 L 117.734,4.32705 c 17.76,-5.94554 37.042,-5.47188 54.488,1.33846 L 239.56,31.9515 c 9.586,4.7061 15.661,14.4554 15.661,25.1347 v 56.5928 c 0,10.679 -6.075,20.428 -15.661,25.134 l -62.611,30.736 c -20.011,9.824 -43.445,9.824 -63.457,0 L 50.8819,138.813 C 41.2954,134.107 35.2207,124.358 35.2207,113.679 V 85.0213 c 0,-7.8556 -5.0267,-14.645 -10.4791,-20.3002 -0.9658,-1.0017 -1.8707,-2.0625 -2.7086,-3.1765 -2.9984,-3.9859 -5.1407,-8.6524 -6.1536,-13.7263 -0.4321,-2.164 -0.6587,-4.4022 -0.6587,-6.6932 0,-1.4028 0.085,-2.7858 0.25,-4.1441 C 17.515,20.1579 31.8459,7.12507 49.2207,7.12507 l 0.1135,1.8e-4 C 64.7539,7.17768 77.7983,17.915 81.8863,31.9515 83.9836,39.153 87.5461,46.458 94.296,49.729 l 17.779,8.6159 c 6.511,3.1548 14.15,1.6596 20.898,-0.9471 3.8,-1.4679 7.93,-2.2727 12.248,-2.2727 18.777,0 34,15.2223 34,34 0,8.4603 -3.09,16.1989 -8.203,22.1489 -1.689,1.965 -1.905,4.91 -0.194,6.856 1.715,1.949 4.706,2.155 6.461,0.242 6.763,-7.368 10.848,-16.864 11.493,-26.9384 0.746,-11.6457 -3.164,-23.1107 -10.872,-31.873 -7.707,-8.7622 -18.579,-14.1039 -30.225,-14.85 -6.037,-0.3867 -12.025,0.478 -17.614,2.4744 -5.939,2.1214 -12.556,2.7979 -18.224,0.0334 l -9.251,-4.5119 C 96.7945,39.8789 93.2315,34.0637 91.3019,27.909 90.9246,26.7056 90.4949,25.5165 90.0134,24.345 Z"
         fill="#f2f2f2"
         id="path4-33-3-5-8-2-2-0-7-3-1-5-6-6-3-6"
         style="fill:none;fill-opacity:1;stroke:#ffffff;stroke-width:2.08842;stroke-dasharray:none;stroke-opacity:1" />
      <path
         d="m 73.2207,41.1251 c 0,13.2548 -10.7451,24 -24,24 -13.2548,0 -24,-10.7452 -24,-24 0,-13.2549 10.7452,-24 24,-24 13.2549,0 24,10.7451 24,24 z"
         fill="#000000"
         id="path5-5-1-7-2-8-7-6-2-3-7-7-3-0-4-6"
         style="fill:none;fill-opacity:1;stroke:#ffffff;stroke-width:2.08842;stroke-dasharray:none;stroke-opacity:1" />
      <path
         d="m 169.221,89.1251 c 0,13.2549 -10.745,23.9999 -24,23.9999 -13.255,0 -24,-10.745 -24,-23.9999 0,-13.2549 10.745,-24 24,-24 13.255,0 24,10.7451 24,24 z"
         fill="#000000"
         id="path6-6-7-3-4-7-0-9-9-1-2-8-3-8-7-7"
         style="fill:none;fill-opacity:1;stroke:#ffffff;stroke-width:2.08842;stroke-dasharray:none;stroke-opacity:1" />
      <path
         d="m 69.2207,76.6019 c 0,-4.3581 4.5824,-7.1958 8.4839,-5.2537 l 26.0914,12.9877 c 1.993,0.9923 3.253,3.0271 3.253,5.2537 0,4.3581 -4.582,7.1958 -8.4836,5.2538 L 72.4742,81.8556 c -1.9934,-0.9922 -3.2535,-3.0271 -3.2535,-5.2537 z"
         fill="#000000"
         id="path7-0-9-4-8-9-7-7-6-6-3-3-8-9-0-1"
         style="fill:none;fill-opacity:1;stroke:#ffffff;stroke-width:2.08842;stroke-dasharray:none;stroke-opacity:1" />
    </g>
  </g>
</svg>
