<?xml version="1.0" encoding="UTF-8" standalone="no"?>
<!-- Created with Inkscape (http://www.inkscape.org/) -->

<svg
   width="512"
   height="512"
   viewBox="0 0 135.46667 135.46667"
   version="1.1"
   id="svg1"
   inkscape:version="1.3.2 (091e20e, 2023-11-25, custom)"
   sodipodi:docname="frogpattern.svg"
   xmlns:inkscape="http://www.inkscape.org/namespaces/inkscape"
   xmlns:sodipodi="http://sodipodi.sourceforge.net/DTD/sodipodi-0.dtd"
   xmlns="http://www.w3.org/2000/svg"
   xmlns:svg="http://www.w3.org/2000/svg">
  <sodipodi:namedview
     id="namedview1"
     pagecolor="#ffffff"
     bordercolor="#000000"
     borderopacity="0.25"
     inkscape:showpageshadow="2"
     inkscape:pageopacity="0.0"
     inkscape:pagecheckerboard="0"
     inkscape:deskcolor="#d1d1d1"
     inkscape:document-units="mm"
     inkscape:zoom="0.73139031"
     inkscape:cx="274.13543"
     inkscape:cy="257.72832"
     inkscape:window-width="1920"
     inkscape:window-height="1017"
     inkscape:window-x="-8"
     inkscape:window-y="-8"
     inkscape:window-maximized="1"
     inkscape:current-layer="layer1" />
  <defs
     id="defs1" />
  <g
     inkscape:label="Layer 1"
     inkscape:groupmode="layer"
     id="layer1">
    <g
       id="g1"
       transform="matrix(-1,0,0,1,149.22501,0)"
       style="stroke:#ffffff;stroke-opacity:1;stroke-width:0.13229167;stroke-dasharray:none">
      <g
         style="fill:none;fill-opacity:1;stroke:#ffffff;stroke-width:1.43896408;stroke-dasharray:none;stroke-opacity:1"
         id="g3-6-4-5-0-1-4-2-6"
         transform="matrix(0.09193535,0,0,0.09193535,63.842492,132.89946)">
        <path
           d="m 28.9476,130.091 c -1.2696,-2.65 -2.9457,-5.264 -5.7293,-6.205 -2.7624,-0.935 -6.0982,-1.306 -9.9541,-0.96 -7.97235,0.715 -14.6933,6.853 -13.00114,12.082 1.34717,4.163 7.57386,4.663 12.25604,4.805 2.3377,0.07 3.7832,2.188 4.0946,4.505 0.4921,3.663 3.1142,6.717 10.5405,4.673 0.3697,-0.102 0.7264,-0.265 1.0428,-0.482 1.9574,-1.339 4.4968,-3.515 5.2582,-7.154 0.526,-2.515 -0.7877,-4.936 -2.1789,-7.096 -0.8621,-1.338 -1.6401,-2.73 -2.3287,-4.168 z"
           fill="#f2f2f2"
           id="path1-9-4-8-1-9-4-8-9"
           style="fill:none;fill-opacity:1;stroke:#ffffff;stroke-width:1.43896408;stroke-dasharray:none;stroke-opacity:1" />
        <path
           d="m 147.013,186.898 c -2.81,0.061 -5.741,0.647 -7.594,2.761 -1.145,1.307 -2.004,2.802 -2.488,4.456 -3.744,12.798 9.958,19.509 13.969,10.885 0.653,-1.403 2.489,-2.178 3.817,-1.383 11.054,6.614 22.818,3.015 18.556,-7.275 -1.739,-4.197 -4.423,-7.241 -7.566,-9.286 -2.266,-1.474 -5.085,-1.552 -7.755,-1.133 -3.625,0.57 -7.28,0.895 -10.939,0.975 z"
           fill="#f2f2f2"
           id="path2-6-2-1-1-6-1-9-3-0"
           style="fill:none;fill-opacity:1;stroke:#ffffff;stroke-width:1.43896408;stroke-dasharray:none;stroke-opacity:1" />
        <path
           d="m 258.222,135.654 c -1.719,2.426 -3.523,5.239 -2.463,8.018 2.334,6.122 11.63,9.681 15.387,9.681 6.509,0 11.864,-1.323 10.57,-7.23 -0.248,-1.136 0.297,-2.341 1.4,-2.709 3.717,-1.237 8.738,-3.322 8.738,-7.155 0,-7.071 -6.903,-7.668 -16.346,-7.668 -2.993,0 -7.464,0.382 -11.456,1.842 -2.513,0.919 -4.283,3.038 -5.83,5.221 z"
           fill="#f2f2f2"
           id="path3-22-8-3-6-0-4-5-0-6"
           style="fill:none;fill-opacity:1;stroke:#ffffff;stroke-width:1.43896408;stroke-dasharray:none;stroke-opacity:1" />
        <path
           d="m 90.0134,24.345 c -0.2525,-0.6144 -0.4935,-1.1402 -0.7281,-1.5946 -2.0712,-4.0123 -2.2555,-8.1441 2.0263,-9.5776 L 117.734,4.32705 c 17.76,-5.94554 37.042,-5.47188 54.488,1.33846 L 239.56,31.9515 c 9.586,4.7061 15.661,14.4554 15.661,25.1347 v 56.5928 c 0,10.679 -6.075,20.428 -15.661,25.134 l -62.611,30.736 c -20.011,9.824 -43.445,9.824 -63.457,0 L 50.8819,138.813 C 41.2954,134.107 35.2207,124.358 35.2207,113.679 V 85.0213 c 0,-7.8556 -5.0267,-14.645 -10.4791,-20.3002 -0.9658,-1.0017 -1.8707,-2.0625 -2.7086,-3.1765 -2.9984,-3.9859 -5.1407,-8.6524 -6.1536,-13.7263 -0.4321,-2.164 -0.6587,-4.4022 -0.6587,-6.6932 0,-1.4028 0.085,-2.7858 0.25,-4.1441 C 17.515,20.1579 31.8459,7.12507 49.2207,7.12507 l 0.1135,1.8e-4 C 64.7539,7.17768 77.7983,17.915 81.8863,31.9515 83.9836,39.153 87.5461,46.458 94.296,49.729 l 17.779,8.6159 c 6.511,3.1548 14.15,1.6596 20.898,-0.9471 3.8,-1.4679 7.93,-2.2727 12.248,-2.2727 18.777,0 34,15.2223 34,34 0,8.4603 -3.09,16.1989 -8.203,22.1489 -1.689,1.965 -1.905,4.91 -0.194,6.856 1.715,1.949 4.706,2.155 6.461,0.242 6.763,-7.368 10.848,-16.864 11.493,-26.9384 0.746,-11.6457 -3.164,-23.1107 -10.872,-31.873 -7.707,-8.7622 -18.579,-14.1039 -30.225,-14.85 -6.037,-0.3867 -12.025,0.478 -17.614,2.4744 -5.939,2.1214 -12.556,2.7979 -18.224,0.0334 l -9.251,-4.5119 C 96.7945,39.8789 93.2315,34.0637 91.3019,27.909 90.9246,26.7056 90.4949,25.5165 90.0134,24.345 Z"
           fill="#f2f2f2"
           id="path4-33-3-5-8-2-2-0-7-3"
           style="fill:none;fill-opacity:1;stroke:#ffffff;stroke-width:1.43896408;stroke-dasharray:none;stroke-opacity:1" />
        <path
           d="m 73.2207,41.1251 c 0,13.2548 -10.7451,24 -24,24 -13.2548,0 -24,-10.7452 -24,-24 0,-13.2549 10.7452,-24 24,-24 13.2549,0 24,10.7451 24,24 z"
           fill="#000000"
           id="path5-5-1-7-2-8-7-6-2-3"
           style="fill:none;fill-opacity:1;stroke:#ffffff;stroke-width:1.43896408;stroke-dasharray:none;stroke-opacity:1" />
        <path
           d="m 169.221,89.1251 c 0,13.2549 -10.745,23.9999 -24,23.9999 -13.255,0 -24,-10.745 -24,-23.9999 0,-13.2549 10.745,-24 24,-24 13.255,0 24,10.7451 24,24 z"
           fill="#000000"
           id="path6-6-7-3-4-7-0-9-9-1"
           style="fill:none;fill-opacity:1;stroke:#ffffff;stroke-width:1.43896408;stroke-dasharray:none;stroke-opacity:1" />
        <path
           d="m 69.2207,76.6019 c 0,-4.3581 4.5824,-7.1958 8.4839,-5.2537 l 26.0914,12.9877 c 1.993,0.9923 3.253,3.0271 3.253,5.2537 0,4.3581 -4.582,7.1958 -8.4836,5.2538 L 72.4742,81.8556 c -1.9934,-0.9922 -3.2535,-3.0271 -3.2535,-5.2537 z"
           fill="#000000"
           id="path7-0-9-4-8-9-7-7-6-6"
           style="fill:none;fill-opacity:1;stroke:#ffffff;stroke-width:1.43896408;stroke-dasharray:none;stroke-opacity:1" />
      </g>
      <g
         style="fill:none;fill-opacity:1;stroke:#ffffff;stroke-width:1.43896408;stroke-dasharray:none;stroke-opacity:1"
         id="g3-6-4-5-0-1-4-2-6-8"
         transform="matrix(0.09193535,0,0,0.09193535,63.842492,-2.567187)">
        <path
           d="m 28.9476,130.091 c -1.2696,-2.65 -2.9457,-5.264 -5.7293,-6.205 -2.7624,-0.935 -6.0982,-1.306 -9.9541,-0.96 -7.97235,0.715 -14.6933,6.853 -13.00114,12.082 1.34717,4.163 7.57386,4.663 12.25604,4.805 2.3377,0.07 3.7832,2.188 4.0946,4.505 0.4921,3.663 3.1142,6.717 10.5405,4.673 0.3697,-0.102 0.7264,-0.265 1.0428,-0.482 1.9574,-1.339 4.4968,-3.515 5.2582,-7.154 0.526,-2.515 -0.7877,-4.936 -2.1789,-7.096 -0.8621,-1.338 -1.6401,-2.73 -2.3287,-4.168 z"
           fill="#f2f2f2"
           id="path1-9-4-8-1-9-4-8-9-5"
           style="fill:none;fill-opacity:1;stroke:#ffffff;stroke-width:1.43896408;stroke-dasharray:none;stroke-opacity:1" />
        <path
           d="m 147.013,186.898 c -2.81,0.061 -5.741,0.647 -7.594,2.761 -1.145,1.307 -2.004,2.802 -2.488,4.456 -3.744,12.798 9.958,19.509 13.969,10.885 0.653,-1.403 2.489,-2.178 3.817,-1.383 11.054,6.614 22.818,3.015 18.556,-7.275 -1.739,-4.197 -4.423,-7.241 -7.566,-9.286 -2.266,-1.474 -5.085,-1.552 -7.755,-1.133 -3.625,0.57 -7.28,0.895 -10.939,0.975 z"
           fill="#f2f2f2"
           id="path2-6-2-1-1-6-1-9-3-0-3"
           style="fill:none;fill-opacity:1;stroke:#ffffff;stroke-width:1.43896408;stroke-dasharray:none;stroke-opacity:1" />
        <path
           d="m 258.222,135.654 c -1.719,2.426 -3.523,5.239 -2.463,8.018 2.334,6.122 11.63,9.681 15.387,9.681 6.509,0 11.864,-1.323 10.57,-7.23 -0.248,-1.136 0.297,-2.341 1.4,-2.709 3.717,-1.237 8.738,-3.322 8.738,-7.155 0,-7.071 -6.903,-7.668 -16.346,-7.668 -2.993,0 -7.464,0.382 -11.456,1.842 -2.513,0.919 -4.283,3.038 -5.83,5.221 z"
           fill="#f2f2f2"
           id="path3-22-8-3-6-0-4-5-0-6-7"
           style="fill:none;fill-opacity:1;stroke:#ffffff;stroke-width:1.43896408;stroke-dasharray:none;stroke-opacity:1" />
        <path
           d="m 90.0134,24.345 c -0.2525,-0.6144 -0.4935,-1.1402 -0.7281,-1.5946 -2.0712,-4.0123 -2.2555,-8.1441 2.0263,-9.5776 L 117.734,4.32705 c 17.76,-5.94554 37.042,-5.47188 54.488,1.33846 L 239.56,31.9515 c 9.586,4.7061 15.661,14.4554 15.661,25.1347 v 56.5928 c 0,10.679 -6.075,20.428 -15.661,25.134 l -62.611,30.736 c -20.011,9.824 -43.445,9.824 -63.457,0 L 50.8819,138.813 C 41.2954,134.107 35.2207,124.358 35.2207,113.679 V 85.0213 c 0,-7.8556 -5.0267,-14.645 -10.4791,-20.3002 -0.9658,-1.0017 -1.8707,-2.0625 -2.7086,-3.1765 -2.9984,-3.9859 -5.1407,-8.6524 -6.1536,-13.7263 -0.4321,-2.164 -0.6587,-4.4022 -0.6587,-6.6932 0,-1.4028 0.085,-2.7858 0.25,-4.1441 C 17.515,20.1579 31.8459,7.12507 49.2207,7.12507 l 0.1135,1.8e-4 C 64.7539,7.17768 77.7983,17.915 81.8863,31.9515 83.9836,39.153 87.5461,46.458 94.296,49.729 l 17.779,8.6159 c 6.511,3.1548 14.15,1.6596 20.898,-0.9471 3.8,-1.4679 7.93,-2.2727 12.248,-2.2727 18.777,0 34,15.2223 34,34 0,8.4603 -3.09,16.1989 -8.203,22.1489 -1.689,1.965 -1.905,4.91 -0.194,6.856 1.715,1.949 4.706,2.155 6.461,0.242 6.763,-7.368 10.848,-16.864 11.493,-26.9384 0.746,-11.6457 -3.164,-23.1107 -10.872,-31.873 -7.707,-8.7622 -18.579,-14.1039 -30.225,-14.85 -6.037,-0.3867 -12.025,0.478 -17.614,2.4744 -5.939,2.1214 -12.556,2.7979 -18.224,0.0334 l -9.251,-4.5119 C 96.7945,39.8789 93.2315,34.0637 91.3019,27.909 90.9246,26.7056 90.4949,25.5165 90.0134,24.345 Z"
           fill="#f2f2f2"
           id="path4-33-3-5-8-2-2-0-7-3-1"
           style="fill:none;fill-opacity:1;stroke:#ffffff;stroke-width:1.43896408;stroke-dasharray:none;stroke-opacity:1" />
        <path
           d="m 73.2207,41.1251 c 0,13.2548 -10.7451,24 -24,24 -13.2548,0 -24,-10.7452 -24,-24 0,-13.2549 10.7452,-24 24,-24 13.2549,0 24,10.7451 24,24 z"
           fill="#000000"
           id="path5-5-1-7-2-8-7-6-2-3-7"
           style="fill:none;fill-opacity:1;stroke:#ffffff;stroke-width:1.43896408;stroke-dasharray:none;stroke-opacity:1" />
        <path
           d="m 169.221,89.1251 c 0,13.2549 -10.745,23.9999 -24,23.9999 -13.255,0 -24,-10.745 -24,-23.9999 0,-13.2549 10.745,-24 24,-24 13.255,0 24,10.7451 24,24 z"
           fill="#000000"
           id="path6-6-7-3-4-7-0-9-9-1-2"
           style="fill:none;fill-opacity:1;stroke:#ffffff;stroke-width:1.43896408;stroke-dasharray:none;stroke-opacity:1" />
        <path
           d="m 69.2207,76.6019 c 0,-4.3581 4.5824,-7.1958 8.4839,-5.2537 l 26.0914,12.9877 c 1.993,0.9923 3.253,3.0271 3.253,5.2537 0,4.3581 -4.582,7.1958 -8.4836,5.2538 L 72.4742,81.8556 c -1.9934,-0.9922 -3.2535,-3.0271 -3.2535,-5.2537 z"
           fill="#000000"
           id="path7-0-9-4-8-9-7-7-6-6-3"
           style="fill:none;fill-opacity:1;stroke:#ffffff;stroke-width:1.43896408;stroke-dasharray:none;stroke-opacity:1" />
      </g>
    </g>
    <g
       style="fill:none;fill-opacity:1;stroke:#ffffff;stroke-width:1.43896408;stroke-dasharray:none;stroke-opacity:1"
       id="g3-6-4-5-0-1-4-2-6-8-8"
       transform="matrix(0.09193535,0,0,0.09193535,103.80597,102.9261)">
      <path
         d="m 28.9476,130.091 c -1.2696,-2.65 -2.9457,-5.264 -5.7293,-6.205 -2.7624,-0.935 -6.0982,-1.306 -9.9541,-0.96 -7.97235,0.715 -14.6933,6.853 -13.00114,12.082 1.34717,4.163 7.57386,4.663 12.25604,4.805 2.3377,0.07 3.7832,2.188 4.0946,4.505 0.4921,3.663 3.1142,6.717 10.5405,4.673 0.3697,-0.102 0.7264,-0.265 1.0428,-0.482 1.9574,-1.339 4.4968,-3.515 5.2582,-7.154 0.526,-2.515 -0.7877,-4.936 -2.1789,-7.096 -0.8621,-1.338 -1.6401,-2.73 -2.3287,-4.168 z"
         fill="#f2f2f2"
         id="path1-9-4-8-1-9-4-8-9-5-8"
         style="fill:none;fill-opacity:1;stroke:#ffffff;stroke-width:1.43896408;stroke-dasharray:none;stroke-opacity:1" />
      <path
         d="m 147.013,186.898 c -2.81,0.061 -5.741,0.647 -7.594,2.761 -1.145,1.307 -2.004,2.802 -2.488,4.456 -3.744,12.798 9.958,19.509 13.969,10.885 0.653,-1.403 2.489,-2.178 3.817,-1.383 11.054,6.614 22.818,3.015 18.556,-7.275 -1.739,-4.197 -4.423,-7.241 -7.566,-9.286 -2.266,-1.474 -5.085,-1.552 -7.755,-1.133 -3.625,0.57 -7.28,0.895 -10.939,0.975 z"
         fill="#f2f2f2"
         id="path2-6-2-1-1-6-1-9-3-0-3-5"
         style="fill:none;fill-opacity:1;stroke:#ffffff;stroke-width:1.43896408;stroke-dasharray:none;stroke-opacity:1" />
      <path
         d="m 258.222,135.654 c -1.719,2.426 -3.523,5.239 -2.463,8.018 2.334,6.122 11.63,9.681 15.387,9.681 6.509,0 11.864,-1.323 10.57,-7.23 -0.248,-1.136 0.297,-2.341 1.4,-2.709 3.717,-1.237 8.738,-3.322 8.738,-7.155 0,-7.071 -6.903,-7.668 -16.346,-7.668 -2.993,0 -7.464,0.382 -11.456,1.842 -2.513,0.919 -4.283,3.038 -5.83,5.221 z"
         fill="#f2f2f2"
         id="path3-22-8-3-6-0-4-5-0-6-7-4"
         style="fill:none;fill-opacity:1;stroke:#ffffff;stroke-width:1.43896408;stroke-dasharray:none;stroke-opacity:1" />
      <path
         d="m 90.0134,24.345 c -0.2525,-0.6144 -0.4935,-1.1402 -0.7281,-1.5946 -2.0712,-4.0123 -2.2555,-8.1441 2.0263,-9.5776 L 117.734,4.32705 c 17.76,-5.94554 37.042,-5.47188 54.488,1.33846 L 239.56,31.9515 c 9.586,4.7061 15.661,14.4554 15.661,25.1347 v 56.5928 c 0,10.679 -6.075,20.428 -15.661,25.134 l -62.611,30.736 c -20.011,9.824 -43.445,9.824 -63.457,0 L 50.8819,138.813 C 41.2954,134.107 35.2207,124.358 35.2207,113.679 V 85.0213 c 0,-7.8556 -5.0267,-14.645 -10.4791,-20.3002 -0.9658,-1.0017 -1.8707,-2.0625 -2.7086,-3.1765 -2.9984,-3.9859 -5.1407,-8.6524 -6.1536,-13.7263 -0.4321,-2.164 -0.6587,-4.4022 -0.6587,-6.6932 0,-1.4028 0.085,-2.7858 0.25,-4.1441 C 17.515,20.1579 31.8459,7.12507 49.2207,7.12507 l 0.1135,1.8e-4 C 64.7539,7.17768 77.7983,17.915 81.8863,31.9515 83.9836,39.153 87.5461,46.458 94.296,49.729 l 17.779,8.6159 c 6.511,3.1548 14.15,1.6596 20.898,-0.9471 3.8,-1.4679 7.93,-2.2727 12.248,-2.2727 18.777,0 34,15.2223 34,34 0,8.4603 -3.09,16.1989 -8.203,22.1489 -1.689,1.965 -1.905,4.91 -0.194,6.856 1.715,1.949 4.706,2.155 6.461,0.242 6.763,-7.368 10.848,-16.864 11.493,-26.9384 0.746,-11.6457 -3.164,-23.1107 -10.872,-31.873 -7.707,-8.7622 -18.579,-14.1039 -30.225,-14.85 -6.037,-0.3867 -12.025,0.478 -17.614,2.4744 -5.939,2.1214 -12.556,2.7979 -18.224,0.0334 l -9.251,-4.5119 C 96.7945,39.8789 93.2315,34.0637 91.3019,27.909 90.9246,26.7056 90.4949,25.5165 90.0134,24.345 Z"
         fill="#f2f2f2"
         id="path4-33-3-5-8-2-2-0-7-3-1-5"
         style="fill:none;fill-opacity:1;stroke:#ffffff;stroke-width:1.43896408;stroke-dasharray:none;stroke-opacity:1" />
      <path
         d="m 73.2207,41.1251 c 0,13.2548 -10.7451,24 -24,24 -13.2548,0 -24,-10.7452 -24,-24 0,-13.2549 10.7452,-24 24,-24 13.2549,0 24,10.7451 24,24 z"
         fill="#000000"
         id="path5-5-1-7-2-8-7-6-2-3-7-7"
         style="fill:none;fill-opacity:1;stroke:#ffffff;stroke-width:1.43896408;stroke-dasharray:none;stroke-opacity:1" />
      <path
         d="m 169.221,89.1251 c 0,13.2549 -10.745,23.9999 -24,23.9999 -13.255,0 -24,-10.745 -24,-23.9999 0,-13.2549 10.745,-24 24,-24 13.255,0 24,10.7451 24,24 z"
         fill="#000000"
         id="path6-6-7-3-4-7-0-9-9-1-2-8"
         style="fill:none;fill-opacity:1;stroke:#ffffff;stroke-width:1.43896408;stroke-dasharray:none;stroke-opacity:1" />
      <path
         d="m 69.2207,76.6019 c 0,-4.3581 4.5824,-7.1958 8.4839,-5.2537 l 26.0914,12.9877 c 1.993,0.9923 3.253,3.0271 3.253,5.2537 0,4.3581 -4.582,7.1958 -8.4836,5.2538 L 72.4742,81.8556 c -1.9934,-0.9922 -3.2535,-3.0271 -3.2535,-5.2537 z"
         fill="#000000"
         id="path7-0-9-4-8-9-7-7-6-6-3-3"
         style="fill:none;fill-opacity:1;stroke:#ffffff;stroke-width:1.43896408;stroke-dasharray:none;stroke-opacity:1" />
    </g>
    <g
       style="fill:none;fill-opacity:1;stroke:#ffffff;stroke-width:2.08842;stroke-dasharray:none;stroke-opacity:1"
       id="g3-6-4-5-0-1-4-2-6-8-8-6"
       transform="matrix(0.09193535,0,0,0.09193535,47.86574,70.656926)" />
    <g
       style="fill:none;fill-opacity:1;stroke:#ffffff;stroke-width:1.43896408;stroke-dasharray:none;stroke-opacity:1"
       id="g3-6-4-5-0-1-4-2-6-8-8-4"
       transform="matrix(0.09193535,0,0,0.09193535,12.60282,12.95895)">
      <path
         d="m 28.9476,130.091 c -1.2696,-2.65 -2.9457,-5.264 -5.7293,-6.205 -2.7624,-0.935 -6.0982,-1.306 -9.9541,-0.96 -7.97235,0.715 -14.6933,6.853 -13.00114,12.082 1.34717,4.163 7.57386,4.663 12.25604,4.805 2.3377,0.07 3.7832,2.188 4.0946,4.505 0.4921,3.663 3.1142,6.717 10.5405,4.673 0.3697,-0.102 0.7264,-0.265 1.0428,-0.482 1.9574,-1.339 4.4968,-3.515 5.2582,-7.154 0.526,-2.515 -0.7877,-4.936 -2.1789,-7.096 -0.8621,-1.338 -1.6401,-2.73 -2.3287,-4.168 z"
         fill="#f2f2f2"
         id="path1-9-4-8-1-9-4-8-9-5-8-3"
         style="fill:none;fill-opacity:1;stroke:#ffffff;stroke-width:1.43896408;stroke-dasharray:none;stroke-opacity:1" />
      <path
         d="m 147.013,186.898 c -2.81,0.061 -5.741,0.647 -7.594,2.761 -1.145,1.307 -2.004,2.802 -2.488,4.456 -3.744,12.798 9.958,19.509 13.969,10.885 0.653,-1.403 2.489,-2.178 3.817,-1.383 11.054,6.614 22.818,3.015 18.556,-7.275 -1.739,-4.197 -4.423,-7.241 -7.566,-9.286 -2.266,-1.474 -5.085,-1.552 -7.755,-1.133 -3.625,0.57 -7.28,0.895 -10.939,0.975 z"
         fill="#f2f2f2"
         id="path2-6-2-1-1-6-1-9-3-0-3-5-8"
         style="fill:none;fill-opacity:1;stroke:#ffffff;stroke-width:1.43896408;stroke-dasharray:none;stroke-opacity:1" />
      <path
         d="m 258.222,135.654 c -1.719,2.426 -3.523,5.239 -2.463,8.018 2.334,6.122 11.63,9.681 15.387,9.681 6.509,0 11.864,-1.323 10.57,-7.23 -0.248,-1.136 0.297,-2.341 1.4,-2.709 3.717,-1.237 8.738,-3.322 8.738,-7.155 0,-7.071 -6.903,-7.668 -16.346,-7.668 -2.993,0 -7.464,0.382 -11.456,1.842 -2.513,0.919 -4.283,3.038 -5.83,5.221 z"
         fill="#f2f2f2"
         id="path3-22-8-3-6-0-4-5-0-6-7-4-5"
         style="fill:none;fill-opacity:1;stroke:#ffffff;stroke-width:1.43896408;stroke-dasharray:none;stroke-opacity:1" />
      <path
         d="m 90.0134,24.345 c -0.2525,-0.6144 -0.4935,-1.1402 -0.7281,-1.5946 -2.0712,-4.0123 -2.2555,-8.1441 2.0263,-9.5776 L 117.734,4.32705 c 17.76,-5.94554 37.042,-5.47188 54.488,1.33846 L 239.56,31.9515 c 9.586,4.7061 15.661,14.4554 15.661,25.1347 v 56.5928 c 0,10.679 -6.075,20.428 -15.661,25.134 l -62.611,30.736 c -20.011,9.824 -43.445,9.824 -63.457,0 L 50.8819,138.813 C 41.2954,134.107 35.2207,124.358 35.2207,113.679 V 85.0213 c 0,-7.8556 -5.0267,-14.645 -10.4791,-20.3002 -0.9658,-1.0017 -1.8707,-2.0625 -2.7086,-3.1765 -2.9984,-3.9859 -5.1407,-8.6524 -6.1536,-13.7263 -0.4321,-2.164 -0.6587,-4.4022 -0.6587,-6.6932 0,-1.4028 0.085,-2.7858 0.25,-4.1441 C 17.515,20.1579 31.8459,7.12507 49.2207,7.12507 l 0.1135,1.8e-4 C 64.7539,7.17768 77.7983,17.915 81.8863,31.9515 83.9836,39.153 87.5461,46.458 94.296,49.729 l 17.779,8.6159 c 6.511,3.1548 14.15,1.6596 20.898,-0.9471 3.8,-1.4679 7.93,-2.2727 12.248,-2.2727 18.777,0 34,15.2223 34,34 0,8.4603 -3.09,16.1989 -8.203,22.1489 -1.689,1.965 -1.905,4.91 -0.194,6.856 1.715,1.949 4.706,2.155 6.461,0.242 6.763,-7.368 10.848,-16.864 11.493,-26.9384 0.746,-11.6457 -3.164,-23.1107 -10.872,-31.873 -7.707,-8.7622 -18.579,-14.1039 -30.225,-14.85 -6.037,-0.3867 -12.025,0.478 -17.614,2.4744 -5.939,2.1214 -12.556,2.7979 -18.224,0.0334 l -9.251,-4.5119 C 96.7945,39.8789 93.2315,34.0637 91.3019,27.909 90.9246,26.7056 90.4949,25.5165 90.0134,24.345 Z"
         fill="#f2f2f2"
         id="path4-33-3-5-8-2-2-0-7-3-1-5-6"
         style="fill:none;fill-opacity:1;stroke:#ffffff;stroke-width:1.43896408;stroke-dasharray:none;stroke-opacity:1" />
      <path
         d="m 73.2207,41.1251 c 0,13.2548 -10.7451,24 -24,24 -13.2548,0 -24,-10.7452 -24,-24 0,-13.2549 10.7452,-24 24,-24 13.2549,0 24,10.7451 24,24 z"
         fill="#000000"
         id="path5-5-1-7-2-8-7-6-2-3-7-7-3"
         style="fill:none;fill-opacity:1;stroke:#ffffff;stroke-width:1.43896408;stroke-dasharray:none;stroke-opacity:1" />
      <path
         d="m 169.221,89.1251 c 0,13.2549 -10.745,23.9999 -24,23.9999 -13.255,0 -24,-10.745 -24,-23.9999 0,-13.2549 10.745,-24 24,-24 13.255,0 24,10.7451 24,24 z"
         fill="#000000"
         id="path6-6-7-3-4-7-0-9-9-1-2-8-3"
         style="fill:none;fill-opacity:1;stroke:#ffffff;stroke-width:1.43896408;stroke-dasharray:none;stroke-opacity:1" />
      <path
         d="m 69.2207,76.6019 c 0,-4.3581 4.5824,-7.1958 8.4839,-5.2537 l 26.0914,12.9877 c 1.993,0.9923 3.253,3.0271 3.253,5.2537 0,4.3581 -4.582,7.1958 -8.4836,5.2538 L 72.4742,81.8556 c -1.9934,-0.9922 -3.2535,-3.0271 -3.2535,-5.2537 z"
         fill="#000000"
         id="path7-0-9-4-8-9-7-7-6-6-3-3-8"
         style="fill:none;fill-opacity:1;stroke:#ffffff;stroke-width:1.43896408;stroke-dasharray:none;stroke-opacity:1" />
    </g>
    <path
       d="m 59.753978,75.242614 c -0.116721,-0.243629 -0.270814,-0.483948 -0.526725,-0.570459 -0.253963,-0.08596 -0.560641,-0.120068 -0.915134,-0.08826 -0.732941,0.06573 -1.350834,0.630033 -1.195264,1.110763 0.123852,0.382727 0.696305,0.428694 1.126763,0.441749 0.214917,0.0064 0.34781,0.201155 0.376438,0.414169 0.04524,0.336759 0.286305,0.61753 0.969045,0.429614 0.03399,-0.0094 0.06678,-0.02436 0.09587,-0.04431 0.179954,-0.123102 0.413415,-0.323153 0.483415,-0.657706 0.04836,-0.231217 -0.07242,-0.453792 -0.200318,-0.652373 -0.07926,-0.123009 -0.150784,-0.250983 -0.21409,-0.383186 z"
       fill="#f2f2f2"
       id="path1-9-4-8-1-9-4-8-9-5-8-5"
       style="fill:none;fill-opacity:1;stroke:#ffffff;stroke-width:0.13229167;stroke-dasharray:none;stroke-opacity:1" />
    <path
       d="m 70.608362,80.465185 c -0.258339,0.0056 -0.527801,0.05948 -0.698157,0.253834 -0.105266,0.120159 -0.184239,0.257602 -0.228736,0.409663 -0.344206,1.176589 0.915493,1.793567 1.284245,1.000717 0.06003,-0.128986 0.228827,-0.200235 0.350918,-0.127147 1.016253,0.608061 2.09778,0.277185 1.705952,-0.66883 -0.159876,-0.385852 -0.40663,-0.665703 -0.695583,-0.853711 -0.208325,-0.135513 -0.467491,-0.142684 -0.712959,-0.104163 -0.333265,0.0524 -0.669289,0.08228 -1.00568,0.08964 z"
       fill="#f2f2f2"
       id="path2-6-2-1-1-6-1-9-3-0-3-5-5"
       style="fill:none;fill-opacity:1;stroke:#ffffff;stroke-width:0.13229167;stroke-dasharray:none;stroke-opacity:1" />
    <path
       d="m 80.8324,75.75405 c -0.158037,0.223035 -0.323888,0.481649 -0.226437,0.737138 0.214577,0.562828 1.069208,0.890026 1.414609,0.890026 0.598408,0 1.090721,-0.121631 0.971757,-0.664693 -0.0228,-0.104438 0.0273,-0.215221 0.12871,-0.249053 0.341723,-0.113724 0.803331,-0.305409 0.803331,-0.657797 0,-0.650075 -0.63463,-0.70496 -1.502776,-0.70496 -0.275162,0 -0.686205,0.03512 -1.053211,0.169345 -0.231033,0.08449 -0.393759,0.279299 -0.535983,0.479994 z"
       fill="#f2f2f2"
       id="path3-22-8-3-6-0-4-5-0-6-7-4-8"
       style="fill:none;fill-opacity:1;stroke:#ffffff;stroke-width:0.13229167;stroke-dasharray:none;stroke-opacity:1" />
    <path
       d="m 65.368083,65.520818 c -0.02321,-0.05649 -0.04537,-0.104825 -0.06694,-0.1466 -0.190416,-0.368872 -0.20736,-0.748731 0.186289,-0.88052 l 2.429152,-0.813237 c 1.632772,-0.546605 3.40547,-0.503059 5.009374,0.123052 l 6.190742,2.416611 c 0.881293,0.432657 1.4398,1.328963 1.4398,2.310768 v 5.202879 c 0,0.981777 -0.558507,1.878055 -1.4398,2.310703 l -5.756164,2.825725 c -1.839718,0.903173 -3.994131,0.903173 -5.833941,0 l -5.756082,-2.825725 c -0.881338,-0.432648 -1.439818,-1.328926 -1.439818,-2.310703 v -2.634656 c 0,-0.722207 -0.462131,-1.346393 -0.963399,-1.866306 -0.08879,-0.09209 -0.171984,-0.189617 -0.249016,-0.292033 -0.275659,-0.366445 -0.472612,-0.795461 -0.565734,-1.261932 -0.03973,-0.198948 -0.06056,-0.404718 -0.06056,-0.615342 0,-0.128966 0.0078,-0.256113 0.02298,-0.380989 0.187944,-1.546637 1.50546,-2.744815 3.102818,-2.744815 l 0.01044,1.6e-5 c 1.417615,0.0048 2.616857,0.99196 2.992689,2.28241 0.192816,0.662073 0.520335,1.33366 1.14089,1.634381 l 1.634518,0.792106 c 0.598591,0.290037 1.300886,0.152576 1.921265,-0.08707 0.349355,-0.134952 0.729048,-0.208942 1.126024,-0.208942 1.726271,0 3.125802,1.399468 3.125802,3.125802 0,0.777801 -0.28408,1.489252 -0.754145,2.036267 -0.155279,0.180653 -0.175137,0.451403 -0.01784,0.630309 0.157669,0.179182 0.432648,0.198121 0.593995,0.02225 0.621758,-0.677379 0.997314,-1.550397 1.056613,-2.476591 0.06858,-1.070651 -0.290884,-2.12469 -0.999522,-2.930255 -0.708545,-0.805556 -1.708066,-1.296647 -2.778746,-1.36524 -0.555013,-0.03555 -1.105522,0.04395 -1.619349,0.227484 -0.546004,0.195032 -1.15434,0.257226 -1.67543,0.0031 l -0.850494,-0.414803 c -0.532995,-0.259956 -0.86056,-0.794579 -1.037959,-1.360413 -0.03469,-0.110635 -0.07419,-0.219956 -0.118459,-0.327658 z"
       fill="#f2f2f2"
       id="path4-33-3-5-8-2-2-0-7-3-1-5-3"
       style="fill:none;fill-opacity:1;stroke:#ffffff;stroke-width:0.13229167;stroke-dasharray:none;stroke-opacity:1" />
    <path
       d="m 63.824241,67.063502 c 0,1.218585 -0.987855,2.206449 -2.206449,2.206449 -1.218584,0 -2.206448,-0.987864 -2.206448,-2.206449 0,-1.218593 0.987864,-2.206448 2.206448,-2.206448 1.218594,0 2.206449,0.987855 2.206449,2.206448 z"
       fill="#000000"
       id="path5-5-1-7-2-8-7-6-2-3-7-7-5"
       style="fill:none;fill-opacity:1;stroke:#ffffff;stroke-width:0.13229167;stroke-dasharray:none;stroke-opacity:1" />
    <path
       d="m 72.650062,71.476399 c 0,1.218594 -0.987845,2.206439 -2.206449,2.206439 -1.218603,0 -2.206448,-0.987845 -2.206448,-2.206439 0,-1.218594 0.987845,-2.206448 2.206448,-2.206448 1.218604,0 2.206449,0.987854 2.206449,2.206448 z"
       fill="#000000"
       id="path6-6-7-3-4-7-0-9-9-1-2-8-0"
       style="fill:none;fill-opacity:1;stroke:#ffffff;stroke-width:0.13229167;stroke-dasharray:none;stroke-opacity:1" />
    <path
       d="m 63.456499,70.325074 c 0,-0.400663 0.421285,-0.661548 0.779971,-0.483 l 2.398722,1.194028 c 0.183227,0.09123 0.299065,0.278298 0.299065,0.483001 0,0.400664 -0.421247,0.661549 -0.779942,0.48301 l -2.398704,-1.194038 c -0.183264,-0.09122 -0.299112,-0.278297 -0.299112,-0.483001 z"
       fill="#000000"
       id="path7-0-9-4-8-9-7-7-6-6-3-3-1"
       style="fill:none;fill-opacity:1;stroke:#ffffff;stroke-width:0.13229167;stroke-dasharray:none;stroke-opacity:1" />
    <g
       id="g7"
       style="stroke:#ffffff;stroke-opacity:1;stroke-width:0.13229167;stroke-dasharray:none"
       transform="matrix(-1,0,0,1,54.3331,-7.3742735)">
      <g
         style="fill:none;fill-opacity:1;stroke:#ffffff;stroke-width:1.43896408;stroke-dasharray:none;stroke-opacity:1"
         id="g3-6-4-5-0-1-4-2-6-8-8-6-9"
         transform="matrix(0.09193535,0,0,0.09193535,9.1372366,107.77032)">
        <path
           d="m 28.9476,130.091 c -1.2696,-2.65 -2.9457,-5.264 -5.7293,-6.205 -2.7624,-0.935 -6.0982,-1.306 -9.9541,-0.96 -7.97235,0.715 -14.6933,6.853 -13.00114,12.082 1.34717,4.163 7.57386,4.663 12.25604,4.805 2.3377,0.07 3.7832,2.188 4.0946,4.505 0.4921,3.663 3.1142,6.717 10.5405,4.673 0.3697,-0.102 0.7264,-0.265 1.0428,-0.482 1.9574,-1.339 4.4968,-3.515 5.2582,-7.154 0.526,-2.515 -0.7877,-4.936 -2.1789,-7.096 -0.8621,-1.338 -1.6401,-2.73 -2.3287,-4.168 z"
           fill="#f2f2f2"
           id="path1-9-4-8-1-9-4-8-9-5-8-5-2"
           style="fill:none;fill-opacity:1;stroke:#ffffff;stroke-width:1.43896408;stroke-dasharray:none;stroke-opacity:1" />
        <path
           d="m 147.013,186.898 c -2.81,0.061 -5.741,0.647 -7.594,2.761 -1.145,1.307 -2.004,2.802 -2.488,4.456 -3.744,12.798 9.958,19.509 13.969,10.885 0.653,-1.403 2.489,-2.178 3.817,-1.383 11.054,6.614 22.818,3.015 18.556,-7.275 -1.739,-4.197 -4.423,-7.241 -7.566,-9.286 -2.266,-1.474 -5.085,-1.552 -7.755,-1.133 -3.625,0.57 -7.28,0.895 -10.939,0.975 z"
           fill="#f2f2f2"
           id="path2-6-2-1-1-6-1-9-3-0-3-5-5-7"
           style="fill:none;fill-opacity:1;stroke:#ffffff;stroke-width:1.43896408;stroke-dasharray:none;stroke-opacity:1" />
        <path
           d="m 258.222,135.654 c -1.719,2.426 -3.523,5.239 -2.463,8.018 2.334,6.122 11.63,9.681 15.387,9.681 6.509,0 11.864,-1.323 10.57,-7.23 -0.248,-1.136 0.297,-2.341 1.4,-2.709 3.717,-1.237 8.738,-3.322 8.738,-7.155 0,-7.071 -6.903,-7.668 -16.346,-7.668 -2.993,0 -7.464,0.382 -11.456,1.842 -2.513,0.919 -4.283,3.038 -5.83,5.221 z"
           fill="#f2f2f2"
           id="path3-22-8-3-6-0-4-5-0-6-7-4-8-8"
           style="fill:none;fill-opacity:1;stroke:#ffffff;stroke-width:1.43896408;stroke-dasharray:none;stroke-opacity:1" />
        <path
           d="m 90.0134,24.345 c -0.2525,-0.6144 -0.4935,-1.1402 -0.7281,-1.5946 -2.0712,-4.0123 -2.2555,-8.1441 2.0263,-9.5776 L 117.734,4.32705 c 17.76,-5.94554 37.042,-5.47188 54.488,1.33846 L 239.56,31.9515 c 9.586,4.7061 15.661,14.4554 15.661,25.1347 v 56.5928 c 0,10.679 -6.075,20.428 -15.661,25.134 l -62.611,30.736 c -20.011,9.824 -43.445,9.824 -63.457,0 L 50.8819,138.813 C 41.2954,134.107 35.2207,124.358 35.2207,113.679 V 85.0213 c 0,-7.8556 -5.0267,-14.645 -10.4791,-20.3002 -0.9658,-1.0017 -1.8707,-2.0625 -2.7086,-3.1765 -2.9984,-3.9859 -5.1407,-8.6524 -6.1536,-13.7263 -0.4321,-2.164 -0.6587,-4.4022 -0.6587,-6.6932 0,-1.4028 0.085,-2.7858 0.25,-4.1441 C 17.515,20.1579 31.8459,7.12507 49.2207,7.12507 l 0.1135,1.8e-4 C 64.7539,7.17768 77.7983,17.915 81.8863,31.9515 83.9836,39.153 87.5461,46.458 94.296,49.729 l 17.779,8.6159 c 6.511,3.1548 14.15,1.6596 20.898,-0.9471 3.8,-1.4679 7.93,-2.2727 12.248,-2.2727 18.777,0 34,15.2223 34,34 0,8.4603 -3.09,16.1989 -8.203,22.1489 -1.689,1.965 -1.905,4.91 -0.194,6.856 1.715,1.949 4.706,2.155 6.461,0.242 6.763,-7.368 10.848,-16.864 11.493,-26.9384 0.746,-11.6457 -3.164,-23.1107 -10.872,-31.873 -7.707,-8.7622 -18.579,-14.1039 -30.225,-14.85 -6.037,-0.3867 -12.025,0.478 -17.614,2.4744 -5.939,2.1214 -12.556,2.7979 -18.224,0.0334 l -9.251,-4.5119 C 96.7945,39.8789 93.2315,34.0637 91.3019,27.909 90.9246,26.7056 90.4949,25.5165 90.0134,24.345 Z"
           fill="#f2f2f2"
           id="path4-33-3-5-8-2-2-0-7-3-1-5-3-1"
           style="fill:none;fill-opacity:1;stroke:#ffffff;stroke-width:1.43896408;stroke-dasharray:none;stroke-opacity:1" />
        <path
           d="m 73.2207,41.1251 c 0,13.2548 -10.7451,24 -24,24 -13.2548,0 -24,-10.7452 -24,-24 0,-13.2549 10.7452,-24 24,-24 13.2549,0 24,10.7451 24,24 z"
           fill="#000000"
           id="path5-5-1-7-2-8-7-6-2-3-7-7-5-0"
           style="fill:none;fill-opacity:1;stroke:#ffffff;stroke-width:1.43896408;stroke-dasharray:none;stroke-opacity:1" />
        <path
           d="m 169.221,89.1251 c 0,13.2549 -10.745,23.9999 -24,23.9999 -13.255,0 -24,-10.745 -24,-23.9999 0,-13.2549 10.745,-24 24,-24 13.255,0 24,10.7451 24,24 z"
           fill="#000000"
           id="path6-6-7-3-4-7-0-9-9-1-2-8-0-5"
           style="fill:none;fill-opacity:1;stroke:#ffffff;stroke-width:1.43896408;stroke-dasharray:none;stroke-opacity:1" />
        <path
           d="m 69.2207,76.6019 c 0,-4.3581 4.5824,-7.1958 8.4839,-5.2537 l 26.0914,12.9877 c 1.993,0.9923 3.253,3.0271 3.253,5.2537 0,4.3581 -4.582,7.1958 -8.4836,5.2538 L 72.4742,81.8556 c -1.9934,-0.9922 -3.2535,-3.0271 -3.2535,-5.2537 z"
           fill="#000000"
           id="path7-0-9-4-8-9-7-7-6-6-3-3-1-4"
           style="fill:none;fill-opacity:1;stroke:#ffffff;stroke-width:1.43896408;stroke-dasharray:none;stroke-opacity:1" />
      </g>
    </g>
    <g
       style="fill:none;fill-opacity:1;stroke:#ffffff;stroke-width:1.43896408;stroke-dasharray:none;stroke-opacity:1"
       id="g3-6-4-5-0-1-4-2-6-8-8-4-3"
       transform="matrix(-0.09193535,0,0,0.09193535,120.37975,23.604783)">
      <path
         d="m 28.9476,130.091 c -1.2696,-2.65 -2.9457,-5.264 -5.7293,-6.205 -2.7624,-0.935 -6.0982,-1.306 -9.9541,-0.96 -7.97235,0.715 -14.6933,6.853 -13.00114,12.082 1.34717,4.163 7.57386,4.663 12.25604,4.805 2.3377,0.07 3.7832,2.188 4.0946,4.505 0.4921,3.663 3.1142,6.717 10.5405,4.673 0.3697,-0.102 0.7264,-0.265 1.0428,-0.482 1.9574,-1.339 4.4968,-3.515 5.2582,-7.154 0.526,-2.515 -0.7877,-4.936 -2.1789,-7.096 -0.8621,-1.338 -1.6401,-2.73 -2.3287,-4.168 z"
         fill="#f2f2f2"
         id="path1-9-4-8-1-9-4-8-9-5-8-3-2"
         style="fill:none;fill-opacity:1;stroke:#ffffff;stroke-width:1.43896408;stroke-dasharray:none;stroke-opacity:1" />
      <path
         d="m 147.013,186.898 c -2.81,0.061 -5.741,0.647 -7.594,2.761 -1.145,1.307 -2.004,2.802 -2.488,4.456 -3.744,12.798 9.958,19.509 13.969,10.885 0.653,-1.403 2.489,-2.178 3.817,-1.383 11.054,6.614 22.818,3.015 18.556,-7.275 -1.739,-4.197 -4.423,-7.241 -7.566,-9.286 -2.266,-1.474 -5.085,-1.552 -7.755,-1.133 -3.625,0.57 -7.28,0.895 -10.939,0.975 z"
         fill="#f2f2f2"
         id="path2-6-2-1-1-6-1-9-3-0-3-5-8-8"
         style="fill:none;fill-opacity:1;stroke:#ffffff;stroke-width:1.43896408;stroke-dasharray:none;stroke-opacity:1" />
      <path
         d="m 258.222,135.654 c -1.719,2.426 -3.523,5.239 -2.463,8.018 2.334,6.122 11.63,9.681 15.387,9.681 6.509,0 11.864,-1.323 10.57,-7.23 -0.248,-1.136 0.297,-2.341 1.4,-2.709 3.717,-1.237 8.738,-3.322 8.738,-7.155 0,-7.071 -6.903,-7.668 -16.346,-7.668 -2.993,0 -7.464,0.382 -11.456,1.842 -2.513,0.919 -4.283,3.038 -5.83,5.221 z"
         fill="#f2f2f2"
         id="path3-22-8-3-6-0-4-5-0-6-7-4-5-5"
         style="fill:none;fill-opacity:1;stroke:#ffffff;stroke-width:1.43896408;stroke-dasharray:none;stroke-opacity:1" />
      <path
         d="m 90.0134,24.345 c -0.2525,-0.6144 -0.4935,-1.1402 -0.7281,-1.5946 -2.0712,-4.0123 -2.2555,-8.1441 2.0263,-9.5776 L 117.734,4.32705 c 17.76,-5.94554 37.042,-5.47188 54.488,1.33846 L 239.56,31.9515 c 9.586,4.7061 15.661,14.4554 15.661,25.1347 v 56.5928 c 0,10.679 -6.075,20.428 -15.661,25.134 l -62.611,30.736 c -20.011,9.824 -43.445,9.824 -63.457,0 L 50.8819,138.813 C 41.2954,134.107 35.2207,124.358 35.2207,113.679 V 85.0213 c 0,-7.8556 -5.0267,-14.645 -10.4791,-20.3002 -0.9658,-1.0017 -1.8707,-2.0625 -2.7086,-3.1765 -2.9984,-3.9859 -5.1407,-8.6524 -6.1536,-13.7263 -0.4321,-2.164 -0.6587,-4.4022 -0.6587,-6.6932 0,-1.4028 0.085,-2.7858 0.25,-4.1441 C 17.515,20.1579 31.8459,7.12507 49.2207,7.12507 l 0.1135,1.8e-4 C 64.7539,7.17768 77.7983,17.915 81.8863,31.9515 83.9836,39.153 87.5461,46.458 94.296,49.729 l 17.779,8.6159 c 6.511,3.1548 14.15,1.6596 20.898,-0.9471 3.8,-1.4679 7.93,-2.2727 12.248,-2.2727 18.777,0 34,15.2223 34,34 0,8.4603 -3.09,16.1989 -8.203,22.1489 -1.689,1.965 -1.905,4.91 -0.194,6.856 1.715,1.949 4.706,2.155 6.461,0.242 6.763,-7.368 10.848,-16.864 11.493,-26.9384 0.746,-11.6457 -3.164,-23.1107 -10.872,-31.873 -7.707,-8.7622 -18.579,-14.1039 -30.225,-14.85 -6.037,-0.3867 -12.025,0.478 -17.614,2.4744 -5.939,2.1214 -12.556,2.7979 -18.224,0.0334 l -9.251,-4.5119 C 96.7945,39.8789 93.2315,34.0637 91.3019,27.909 90.9246,26.7056 90.4949,25.5165 90.0134,24.345 Z"
         fill="#f2f2f2"
         id="path4-33-3-5-8-2-2-0-7-3-1-5-6-6"
         style="fill:none;fill-opacity:1;stroke:#ffffff;stroke-width:1.43896408;stroke-dasharray:none;stroke-opacity:1" />
      <path
         d="m 73.2207,41.1251 c 0,13.2548 -10.7451,24 -24,24 -13.2548,0 -24,-10.7452 -24,-24 0,-13.2549 10.7452,-24 24,-24 13.2549,0 24,10.7451 24,24 z"
         fill="#000000"
         id="path5-5-1-7-2-8-7-6-2-3-7-7-3-0"
         style="fill:none;fill-opacity:1;stroke:#ffffff;stroke-width:1.43896408;stroke-dasharray:none;stroke-opacity:1" />
      <path
         d="m 169.221,89.1251 c 0,13.2549 -10.745,23.9999 -24,23.9999 -13.255,0 -24,-10.745 -24,-23.9999 0,-13.2549 10.745,-24 24,-24 13.255,0 24,10.7451 24,24 z"
         fill="#000000"
         id="path6-6-7-3-4-7-0-9-9-1-2-8-3-8"
         style="fill:none;fill-opacity:1;stroke:#ffffff;stroke-width:1.43896408;stroke-dasharray:none;stroke-opacity:1" />
      <path
         d="m 69.2207,76.6019 c 0,-4.3581 4.5824,-7.1958 8.4839,-5.2537 l 26.0914,12.9877 c 1.993,0.9923 3.253,3.0271 3.253,5.2537 0,4.3581 -4.582,7.1958 -8.4836,5.2538 L 72.4742,81.8556 c -1.9934,-0.9922 -3.2535,-3.0271 -3.2535,-5.2537 z"
         fill="#000000"
         id="path7-0-9-4-8-9-7-7-6-6-3-3-8-9"
         style="fill:none;fill-opacity:1;stroke:#ffffff;stroke-width:1.43896408;stroke-dasharray:none;stroke-opacity:1" />
    </g>
    <g
       style="fill:none;fill-opacity:1;stroke:#ffffff;stroke-width:1.43896408;stroke-dasharray:none;stroke-opacity:1"
       id="g3-6-4-5-0-1-4-2-6-8-8-4-3-9"
       transform="matrix(0.09193535,0,0,0.09193535,124.97927,53.889798)">
      <path
         d="m 28.9476,130.091 c -1.2696,-2.65 -2.9457,-5.264 -5.7293,-6.205 -2.7624,-0.935 -6.0982,-1.306 -9.9541,-0.96 -7.97235,0.715 -14.6933,6.853 -13.00114,12.082 1.34717,4.163 7.57386,4.663 12.25604,4.805 2.3377,0.07 3.7832,2.188 4.0946,4.505 0.4921,3.663 3.1142,6.717 10.5405,4.673 0.3697,-0.102 0.7264,-0.265 1.0428,-0.482 1.9574,-1.339 4.4968,-3.515 5.2582,-7.154 0.526,-2.515 -0.7877,-4.936 -2.1789,-7.096 -0.8621,-1.338 -1.6401,-2.73 -2.3287,-4.168 z"
         fill="#f2f2f2"
         id="path1-9-4-8-1-9-4-8-9-5-8-3-2-1"
         style="fill:none;fill-opacity:1;stroke:#ffffff;stroke-width:1.43896408;stroke-dasharray:none;stroke-opacity:1" />
      <path
         d="m 147.013,186.898 c -2.81,0.061 -5.741,0.647 -7.594,2.761 -1.145,1.307 -2.004,2.802 -2.488,4.456 -3.744,12.798 9.958,19.509 13.969,10.885 0.653,-1.403 2.489,-2.178 3.817,-1.383 11.054,6.614 22.818,3.015 18.556,-7.275 -1.739,-4.197 -4.423,-7.241 -7.566,-9.286 -2.266,-1.474 -5.085,-1.552 -7.755,-1.133 -3.625,0.57 -7.28,0.895 -10.939,0.975 z"
         fill="#f2f2f2"
         id="path2-6-2-1-1-6-1-9-3-0-3-5-8-8-3"
         style="fill:none;fill-opacity:1;stroke:#ffffff;stroke-width:1.43896408;stroke-dasharray:none;stroke-opacity:1" />
      <path
         d="m 258.222,135.654 c -1.719,2.426 -3.523,5.239 -2.463,8.018 2.334,6.122 11.63,9.681 15.387,9.681 6.509,0 11.864,-1.323 10.57,-7.23 -0.248,-1.136 0.297,-2.341 1.4,-2.709 3.717,-1.237 8.738,-3.322 8.738,-7.155 0,-7.071 -6.903,-7.668 -16.346,-7.668 -2.993,0 -7.464,0.382 -11.456,1.842 -2.513,0.919 -4.283,3.038 -5.83,5.221 z"
         fill="#f2f2f2"
         id="path3-22-8-3-6-0-4-5-0-6-7-4-5-5-4"
         style="fill:none;fill-opacity:1;stroke:#ffffff;stroke-width:1.43896408;stroke-dasharray:none;stroke-opacity:1" />
      <path
         d="m 90.0134,24.345 c -0.2525,-0.6144 -0.4935,-1.1402 -0.7281,-1.5946 -2.0712,-4.0123 -2.2555,-8.1441 2.0263,-9.5776 L 117.734,4.32705 c 17.76,-5.94554 37.042,-5.47188 54.488,1.33846 L 239.56,31.9515 c 9.586,4.7061 15.661,14.4554 15.661,25.1347 v 56.5928 c 0,10.679 -6.075,20.428 -15.661,25.134 l -62.611,30.736 c -20.011,9.824 -43.445,9.824 -63.457,0 L 50.8819,138.813 C 41.2954,134.107 35.2207,124.358 35.2207,113.679 V 85.0213 c 0,-7.8556 -5.0267,-14.645 -10.4791,-20.3002 -0.9658,-1.0017 -1.8707,-2.0625 -2.7086,-3.1765 -2.9984,-3.9859 -5.1407,-8.6524 -6.1536,-13.7263 -0.4321,-2.164 -0.6587,-4.4022 -0.6587,-6.6932 0,-1.4028 0.085,-2.7858 0.25,-4.1441 C 17.515,20.1579 31.8459,7.12507 49.2207,7.12507 l 0.1135,1.8e-4 C 64.7539,7.17768 77.7983,17.915 81.8863,31.9515 83.9836,39.153 87.5461,46.458 94.296,49.729 l 17.779,8.6159 c 6.511,3.1548 14.15,1.6596 20.898,-0.9471 3.8,-1.4679 7.93,-2.2727 12.248,-2.2727 18.777,0 34,15.2223 34,34 0,8.4603 -3.09,16.1989 -8.203,22.1489 -1.689,1.965 -1.905,4.91 -0.194,6.856 1.715,1.949 4.706,2.155 6.461,0.242 6.763,-7.368 10.848,-16.864 11.493,-26.9384 0.746,-11.6457 -3.164,-23.1107 -10.872,-31.873 -7.707,-8.7622 -18.579,-14.1039 -30.225,-14.85 -6.037,-0.3867 -12.025,0.478 -17.614,2.4744 -5.939,2.1214 -12.556,2.7979 -18.224,0.0334 l -9.251,-4.5119 C 96.7945,39.8789 93.2315,34.0637 91.3019,27.909 90.9246,26.7056 90.4949,25.5165 90.0134,24.345 Z"
         fill="#f2f2f2"
         id="path4-33-3-5-8-2-2-0-7-3-1-5-6-6-3"
         style="fill:none;fill-opacity:1;stroke:#ffffff;stroke-width:1.43896408;stroke-dasharray:none;stroke-opacity:1" />
      <path
         d="m 73.2207,41.1251 c 0,13.2548 -10.7451,24 -24,24 -13.2548,0 -24,-10.7452 -24,-24 0,-13.2549 10.7452,-24 24,-24 13.2549,0 24,10.7451 24,24 z"
         fill="#000000"
         id="path5-5-1-7-2-8-7-6-2-3-7-7-3-0-4"
         style="fill:none;fill-opacity:1;stroke:#ffffff;stroke-width:1.43896408;stroke-dasharray:none;stroke-opacity:1" />
      <path
         d="m 169.221,89.1251 c 0,13.2549 -10.745,23.9999 -24,23.9999 -13.255,0 -24,-10.745 -24,-23.9999 0,-13.2549 10.745,-24 24,-24 13.255,0 24,10.7451 24,24 z"
         fill="#000000"
         id="path6-6-7-3-4-7-0-9-9-1-2-8-3-8-7"
         style="fill:none;fill-opacity:1;stroke:#ffffff;stroke-width:1.43896408;stroke-dasharray:none;stroke-opacity:1" />
      <path
         d="m 69.2207,76.6019 c 0,-4.3581 4.5824,-7.1958 8.4839,-5.2537 l 26.0914,12.9877 c 1.993,0.9923 3.253,3.0271 3.253,5.2537 0,4.3581 -4.582,7.1958 -8.4836,5.2538 L 72.4742,81.8556 c -1.9934,-0.9922 -3.2535,-3.0271 -3.2535,-5.2537 z"
         fill="#000000"
         id="path7-0-9-4-8-9-7-7-6-6-3-3-8-9-0"
         style="fill:none;fill-opacity:1;stroke:#ffffff;stroke-width:1.43896408;stroke-dasharray:none;stroke-opacity:1" />
    </g>
    <g
       style="fill:none;fill-opacity:1;stroke:#ffffff;stroke-width:1.43896408;stroke-dasharray:none;stroke-opacity:1"
       id="g3-6-4-5-0-1-4-2-6-8-8-4-3-9-1"
       transform="matrix(0.09193535,0,0,0.09193535,-10.48733,53.889798)">
      <path
         d="m 28.9476,130.091 c -1.2696,-2.65 -2.9457,-5.264 -5.7293,-6.205 -2.7624,-0.935 -6.0982,-1.306 -9.9541,-0.96 -7.97235,0.715 -14.6933,6.853 -13.00114,12.082 1.34717,4.163 7.57386,4.663 12.25604,4.805 2.3377,0.07 3.7832,2.188 4.0946,4.505 0.4921,3.663 3.1142,6.717 10.5405,4.673 0.3697,-0.102 0.7264,-0.265 1.0428,-0.482 1.9574,-1.339 4.4968,-3.515 5.2582,-7.154 0.526,-2.515 -0.7877,-4.936 -2.1789,-7.096 -0.8621,-1.338 -1.6401,-2.73 -2.3287,-4.168 z"
         fill="#f2f2f2"
         id="path1-9-4-8-1-9-4-8-9-5-8-3-2-1-0"
         style="fill:none;fill-opacity:1;stroke:#ffffff;stroke-width:1.43896408;stroke-dasharray:none;stroke-opacity:1" />
      <path
         d="m 147.013,186.898 c -2.81,0.061 -5.741,0.647 -7.594,2.761 -1.145,1.307 -2.004,2.802 -2.488,4.456 -3.744,12.798 9.958,19.509 13.969,10.885 0.653,-1.403 2.489,-2.178 3.817,-1.383 11.054,6.614 22.818,3.015 18.556,-7.275 -1.739,-4.197 -4.423,-7.241 -7.566,-9.286 -2.266,-1.474 -5.085,-1.552 -7.755,-1.133 -3.625,0.57 -7.28,0.895 -10.939,0.975 z"
         fill="#f2f2f2"
         id="path2-6-2-1-1-6-1-9-3-0-3-5-8-8-3-5"
         style="fill:none;fill-opacity:1;stroke:#ffffff;stroke-width:1.43896408;stroke-dasharray:none;stroke-opacity:1" />
      <path
         d="m 258.222,135.654 c -1.719,2.426 -3.523,5.239 -2.463,8.018 2.334,6.122 11.63,9.681 15.387,9.681 6.509,0 11.864,-1.323 10.57,-7.23 -0.248,-1.136 0.297,-2.341 1.4,-2.709 3.717,-1.237 8.738,-3.322 8.738,-7.155 0,-7.071 -6.903,-7.668 -16.346,-7.668 -2.993,0 -7.464,0.382 -11.456,1.842 -2.513,0.919 -4.283,3.038 -5.83,5.221 z"
         fill="#f2f2f2"
         id="path3-22-8-3-6-0-4-5-0-6-7-4-5-5-4-3"
         style="fill:none;fill-opacity:1;stroke:#ffffff;stroke-width:1.43896408;stroke-dasharray:none;stroke-opacity:1" />
      <path
         d="m 90.0134,24.345 c -0.2525,-0.6144 -0.4935,-1.1402 -0.7281,-1.5946 -2.0712,-4.0123 -2.2555,-8.1441 2.0263,-9.5776 L 117.734,4.32705 c 17.76,-5.94554 37.042,-5.47188 54.488,1.33846 L 239.56,31.9515 c 9.586,4.7061 15.661,14.4554 15.661,25.1347 v 56.5928 c 0,10.679 -6.075,20.428 -15.661,25.134 l -62.611,30.736 c -20.011,9.824 -43.445,9.824 -63.457,0 L 50.8819,138.813 C 41.2954,134.107 35.2207,124.358 35.2207,113.679 V 85.0213 c 0,-7.8556 -5.0267,-14.645 -10.4791,-20.3002 -0.9658,-1.0017 -1.8707,-2.0625 -2.7086,-3.1765 -2.9984,-3.9859 -5.1407,-8.6524 -6.1536,-13.7263 -0.4321,-2.164 -0.6587,-4.4022 -0.6587,-6.6932 0,-1.4028 0.085,-2.7858 0.25,-4.1441 C 17.515,20.1579 31.8459,7.12507 49.2207,7.12507 l 0.1135,1.8e-4 C 64.7539,7.17768 77.7983,17.915 81.8863,31.9515 83.9836,39.153 87.5461,46.458 94.296,49.729 l 17.779,8.6159 c 6.511,3.1548 14.15,1.6596 20.898,-0.9471 3.8,-1.4679 7.93,-2.2727 12.248,-2.2727 18.777,0 34,15.2223 34,34 0,8.4603 -3.09,16.1989 -8.203,22.1489 -1.689,1.965 -1.905,4.91 -0.194,6.856 1.715,1.949 4.706,2.155 6.461,0.242 6.763,-7.368 10.848,-16.864 11.493,-26.9384 0.746,-11.6457 -3.164,-23.1107 -10.872,-31.873 -7.707,-8.7622 -18.579,-14.1039 -30.225,-14.85 -6.037,-0.3867 -12.025,0.478 -17.614,2.4744 -5.939,2.1214 -12.556,2.7979 -18.224,0.0334 l -9.251,-4.5119 C 96.7945,39.8789 93.2315,34.0637 91.3019,27.909 90.9246,26.7056 90.4949,25.5165 90.0134,24.345 Z"
         fill="#f2f2f2"
         id="path4-33-3-5-8-2-2-0-7-3-1-5-6-6-3-6"
         style="fill:none;fill-opacity:1;stroke:#ffffff;stroke-width:1.43896408;stroke-dasharray:none;stroke-opacity:1" />
      <path
         d="m 73.2207,41.1251 c 0,13.2548 -10.7451,24 -24,24 -13.2548,0 -24,-10.7452 -24,-24 0,-13.2549 10.7452,-24 24,-24 13.2549,0 24,10.7451 24,24 z"
         fill="#000000"
         id="path5-5-1-7-2-8-7-6-2-3-7-7-3-0-4-6"
         style="fill:none;fill-opacity:1;stroke:#ffffff;stroke-width:1.43896408;stroke-dasharray:none;stroke-opacity:1" />
      <path
         d="m 169.221,89.1251 c 0,13.2549 -10.745,23.9999 -24,23.9999 -13.255,0 -24,-10.745 -24,-23.9999 0,-13.2549 10.745,-24 24,-24 13.255,0 24,10.7451 24,24 z"
         fill="#000000"
         id="path6-6-7-3-4-7-0-9-9-1-2-8-3-8-7-7"
         style="fill:none;fill-opacity:1;stroke:#ffffff;stroke-width:1.43896408;stroke-dasharray:none;stroke-opacity:1" />
      <path
         d="m 69.2207,76.6019 c 0,-4.3581 4.5824,-7.1958 8.4839,-5.2537 l 26.0914,12.9877 c 1.993,0.9923 3.253,3.0271 3.253,5.2537 0,4.3581 -4.582,7.1958 -8.4836,5.2538 L 72.4742,81.8556 c -1.9934,-0.9922 -3.2535,-3.0271 -3.2535,-5.2537 z"
         fill="#000000"
         id="path7-0-9-4-8-9-7-7-6-6-3-3-8-9-0-1"
         style="fill:none;fill-opacity:1;stroke:#ffffff;stroke-width:1.43896408;stroke-dasharray:none;stroke-opacity:1" />
    </g>
  </g>
</svg>
