<?xml version="1.0" encoding="UTF-8" standalone="no"?>
<!-- Created with Inkscape (http://www.inkscape.org/) -->

<svg
   width="256"
   height="256"
   viewBox="0 0 67.733334 67.733334"
   version="1.1"
   id="svg1"
   inkscape:version="1.3.2 (091e20e, 2023-11-25, custom)"
   sodipodi:docname="logo.svg"
   xmlns:inkscape="http://www.inkscape.org/namespaces/inkscape"
   xmlns:sodipodi="http://sodipodi.sourceforge.net/DTD/sodipodi-0.dtd"
   xmlns="http://www.w3.org/2000/svg"
   xmlns:svg="http://www.w3.org/2000/svg">
  <sodipodi:namedview
     id="namedview1"
     pagecolor="#ffffff"
     bordercolor="#000000"
     borderopacity="0.25"
     inkscape:showpageshadow="2"
     inkscape:pageopacity="0.0"
     inkscape:pagecheckerboard="0"
     inkscape:deskcolor="#d1d1d1"
     inkscape:document-units="px"
     inkscape:zoom="1.4627806"
     inkscape:cx="139.46042"
     inkscape:cy="137.75135"
     inkscape:window-width="1920"
     inkscape:window-height="1017"
     inkscape:window-x="-8"
     inkscape:window-y="-8"
     inkscape:window-maximized="1"
     inkscape:current-layer="layer1" />
  <defs
     id="defs1" />
  <g
     inkscape:label="Layer 1"
     inkscape:groupmode="layer"
     id="layer1">
    <g
       id="g1"
       transform="translate(-0.22864638,-0.87083134)">
      <rect
         style="opacity:1;fill:#000000;stroke:#272727;stroke-width:0.0966548"
         id="rect1"
         width="68.226265"
         height="67.502747"
         x="-0.017819101"
         y="0.98612505" />
      <path
         style="fill:#f9f9f9;stroke-width:2.20464"
         d="m 33.273721,57.169855 c -0.745438,-0.0843 -1.991366,-0.368767 -2.705919,-0.618015 -0.913573,-0.318644 -1.815464,-0.772755 -3.677658,-1.851491 -0.943794,-0.546731 -2.889759,-1.670869 -4.324356,-2.498083 -2.93418,-1.691925 -3.182799,-1.878949 -3.588676,-2.699937 l -0.255335,-0.516161 -0.01399,-3.092547 -0.01399,-3.092523 0.290662,0.322142 c 0.159847,0.177335 0.39374,0.492166 0.519659,0.699966 0.195523,0.322142 0.330885,0.616266 0.834105,1.807805 0.06716,0.159147 0.650404,0.56415 0.815602,0.566423 0.139909,0.0019 0.04897,-0.558238 -0.208116,-1.287691 -0.406402,-1.152574 -0.925675,-1.996228 -1.714974,-2.786261 l -0.539771,-0.540295 v -1.559675 c 0,-1.694024 0.04932,-1.987589 0.43211,-2.583708 0.40266,-0.626759 0.748656,-0.85586 5.024812,-3.3275 4.458808,-2.577202 5.146498,-2.952544 6.022296,-3.286997 0.635434,-0.242743 1.836836,-0.567368 2.592102,-0.700561 0.774573,-0.136762 3.29756,-0.117175 4.084095,0.03148 0.57947,0.109479 1.812807,0.42543 1.849043,0.473559 0.01049,0.01049 0.08919,0.176285 0.178735,0.364988 0.128017,0.270725 0.713468,0.886921 2.773914,2.919245 1.436415,1.416828 3.205814,3.162023 3.931944,3.878184 1.587447,1.565657 1.919487,1.782096 2.723127,1.775031 0.923927,-0.01049 1.733198,-0.566843 2.040054,-1.408468 l 0.150403,-0.412768 0.08849,0.210214 c 0.04862,0.115425 0.120672,0.386045 0.160546,0.600981 0.09619,0.520918 0.09759,9.504806 0.0013,10.097357 -0.105981,0.652398 -0.373383,1.153238 -0.888005,1.662544 -0.404967,0.400805 -0.890348,0.698462 -4.773849,2.927499 -2.377655,1.364746 -4.554646,2.596999 -4.837788,2.738377 -1.99154,0.994231 -4.65531,1.447993 -6.967034,1.186817 z M 24.742954,50.89936 c 0.02099,-0.864431 0.02448,-0.891713 0.173487,-0.912944 0.09759,-0.01399 0.470446,0.16894 1.016093,0.497622 0.474153,0.285765 0.891293,0.519554 0.927004,0.519554 0.0759,0 0.08674,-0.685766 0.01399,-0.794825 -0.02798,-0.04092 -0.421092,-0.295909 -0.874119,-0.567053 -0.453061,-0.271075 -0.924101,-0.605808 -1.046767,-0.743829 l -0.223156,-0.250787 v -0.909576 c 0,-0.500281 -0.01749,-0.957995 -0.04127,-1.017106 -0.03673,-0.09514 -0.696959,-0.521513 -0.807942,-0.521513 -0.02448,0 -0.04337,0.395384 -0.04337,0.878596 0,0.886746 -0.03987,1.043329 -0.265128,1.043329 -0.05526,0 -0.46254,-0.21581 -0.905354,-0.479703 -1.100527,-0.655756 -1.02613,-0.644843 -1.02613,-0.150753 v 0.413677 l 0.938582,0.571765 c 0.516231,0.314446 1.002731,0.658833 1.08108,0.765269 0.12417,0.168941 0.146905,0.321792 0.176985,1.19717 l 0.03498,1.00364 0.375796,0.225254 c 0.206717,0.12382 0.398777,0.202519 0.426829,0.174537 0.02798,-0.02798 0.05981,-0.452012 0.07031,-0.942115 z m 11.970125,-0.105632 c 0.201819,-0.115425 0.388983,-0.245191 0.415531,-0.288213 0.05596,-0.09059 -0.733196,-0.84292 -1.459465,-1.39119 -2.267058,-1.711466 -4.478851,-1.851376 -6.40292,-0.405003 -0.493425,0.3709 -1.31214,1.292029 -1.31214,1.476255 0,0.07555 0.140958,0.202519 0.370025,0.333334 l 0.370096,0.211613 0.676671,-0.67167 c 0.940961,-0.933931 1.731659,-1.320395 2.701616,-1.320395 1.063172,0 2.492347,0.7106 3.706585,1.842956 0.245541,0.228752 0.473279,0.417455 0.506438,0.419134 0.03148,0.0017 0.225603,-0.09164 0.427563,-0.207066 z M 47.756863,38.621514 c -0.113326,-0.04967 -1.410566,-1.275589 -2.882903,-2.724211 -5.199069,-5.115403 -5.233347,-5.150555 -5.313935,-5.451255 -0.09759,-0.363205 -0.103183,-15.062824 -0.007,-15.412178 0.0766,-0.275272 0.488494,-0.708571 0.777127,-0.817211 0.29381,-0.110528 0.812349,-0.08744 1.054427,0.04757 0.230151,0.128018 0.90322,0.774574 5.198859,4.993613 1.536031,1.508679 2.791123,2.796825 2.875733,2.951564 l 0.150053,0.274573 0.01749,7.504391 c 0.01399,5.052968 -0.0035,7.591275 -0.05352,7.770429 -0.197272,0.732006 -1.11924,1.169643 -1.818332,0.862961 z M 27.473566,29.279868 c -3.443136,-1.274995 -3.450831,-1.278143 -3.67577,-1.505286 -0.151102,-0.152851 -1.071497,-2.110533 -3.311936,-7.046363 -3.332957,-7.342762 -3.249501,-7.129085 -3.009696,-7.702993 0.198321,-0.474888 0.844318,-0.853203 1.339562,-0.784612 0.137112,0.02099 1.315044,0.426688 2.617496,0.905913 1.302451,0.47926 3.418301,1.255652 4.701865,1.725293 2.893957,1.058834 3.131208,1.157087 3.348452,1.386643 0.163345,0.172788 5.787773,12.412729 5.865878,12.765475 0.03148,0.147255 0.01749,0.153901 -0.231201,0.114026 -0.419728,-0.06716 -2.250338,0.09339 -3.115538,0.273523 -0.433509,0.09024 -1.130922,0.274922 -1.549776,0.41046 -0.418889,0.135712 -0.789544,0.243442 -0.823717,0.239944 -0.03498,-0.0035 -1.0042,-0.355545 -2.155654,-0.781919 z"
         id="path32"
         sodipodi:nodetypes="ssssscccsssssscsssssscssscscscssssssccssssscscssssscssscssccsssssscsssssscsscsssscccccccsssscsssscssc" />
    </g>
  </g>
</svg>
