<?xml version="1.0" encoding="UTF-8" standalone="no"?>
<!-- Created with Inkscape (http://www.inkscape.org/) -->

<svg
   width="45.965149mm"
   height="10.642185mm"
   viewBox="0 0 45.965149 10.642185"
   version="1.1"
   id="svg1"
   inkscape:version="1.3.2 (091e20e, 2023-11-25, custom)"
   sodipodi:docname="logolong.svg"
   xmlns:inkscape="http://www.inkscape.org/namespaces/inkscape"
   xmlns:sodipodi="http://sodipodi.sourceforge.net/DTD/sodipodi-0.dtd"
   xmlns="http://www.w3.org/2000/svg"
   xmlns:svg="http://www.w3.org/2000/svg">
  <sodipodi:namedview
     id="namedview1"
     pagecolor="#ffffff"
     bordercolor="#000000"
     borderopacity="0.25"
     inkscape:showpageshadow="2"
     inkscape:pageopacity="0.0"
     inkscape:pagecheckerboard="0"
     inkscape:deskcolor="#d1d1d1"
     inkscape:document-units="mm"
     inkscape:zoom="5.8511223"
     inkscape:cx="92.033625"
     inkscape:cy="9.4853597"
     inkscape:window-width="1920"
     inkscape:window-height="1017"
     inkscape:window-x="-8"
     inkscape:window-y="-8"
     inkscape:window-maximized="1"
     inkscape:current-layer="layer1" />
  <defs
     id="defs1" />
  <g
     inkscape:label="Layer 1"
     inkscape:groupmode="layer"
     id="layer1"
     transform="translate(-49.735674,-120.65001)">
    <path
       d="m 69.81141,123.74846 q 0.13183,0 0.296617,0.022 0.175773,0.011 0.34056,0.0439 0.164787,0.022 0.296616,0.0549 0.142816,0.022 0.20873,0.0439 l -0.175772,0.88985 q -0.120844,-0.0439 -0.406475,-0.0989 -0.274645,-0.0659 -0.714077,-0.0659 -0.285631,0 -0.571262,0.0659 -0.274645,0.0549 -0.362531,0.0769 v 4.80079 H 67.702137 V 124.111 q 0.362531,-0.13183 0.900835,-0.24169 0.538304,-0.12085 1.208438,-0.12085 z m 3.152921,5.83346 h -1.021679 v -5.71261 h 1.021679 z m -0.516332,-6.74528 q -0.274645,0 -0.47239,-0.17577 -0.186758,-0.18676 -0.186758,-0.49436 0,-0.3076 0.186758,-0.48338 0.197745,-0.18675 0.47239,-0.18675 0.274645,0 0.461403,0.18675 0.197745,0.17578 0.197745,0.48338 0,0.3076 -0.197745,0.49436 -0.186758,0.17577 -0.461403,0.17577 z m 3.295742,1.28534 q 0.186759,-0.12084 0.560276,-0.25267 0.384503,-0.13183 0.878864,-0.13183 0.615205,0 1.087594,0.21971 0.483375,0.21972 0.812949,0.61521 0.329574,0.39549 0.494361,0.94478 0.175773,0.54929 0.175773,1.20844 0,0.6921 -0.20873,1.25238 -0.197744,0.54929 -0.571262,0.93379 -0.373517,0.3845 -0.900835,0.59323 -0.527319,0.20873 -1.186467,0.20873 -0.714077,0 -1.263367,-0.0989 -0.54929,-0.0989 -0.900835,-0.19774 v -8.18442 l 1.021679,-0.17578 z m 0,4.57009 q 0.153801,0.0439 0.428446,0.0879 0.285631,0.033 0.703092,0.033 0.823935,0 1.318296,-0.53831 0.494361,-0.54929 0.494361,-1.54899 0,-0.43944 -0.08789,-0.82394 -0.08789,-0.3845 -0.285631,-0.65915 -0.197744,-0.28563 -0.516332,-0.43943 -0.307603,-0.16479 -0.747035,-0.16479 -0.41746,0 -0.769006,0.14282 -0.351545,0.14282 -0.538304,0.29662 z m 6.470644,-4.57009 q 0.186759,-0.12084 0.560276,-0.25267 0.384503,-0.13183 0.878864,-0.13183 0.615205,0 1.087594,0.21971 0.483375,0.21972 0.812949,0.61521 0.329574,0.39549 0.494361,0.94478 0.175773,0.54929 0.175773,1.20844 0,0.6921 -0.20873,1.25238 -0.197744,0.54929 -0.571262,0.93379 -0.373517,0.3845 -0.900835,0.59323 -0.527319,0.20873 -1.186467,0.20873 -0.714077,0 -1.263367,-0.0989 -0.54929,-0.0989 -0.900835,-0.19774 v -8.18442 l 1.021679,-0.17578 z m 0,4.57009 q 0.153801,0.0439 0.428446,0.0879 0.285631,0.033 0.703092,0.033 0.823935,0 1.318296,-0.53831 0.494361,-0.54929 0.494361,-1.54899 0,-0.43944 -0.08789,-0.82394 -0.08789,-0.3845 -0.285631,-0.65915 -0.197744,-0.28563 -0.516332,-0.43943 -0.307603,-0.16479 -0.747035,-0.16479 -0.41746,0 -0.769006,0.14282 -0.351545,0.14282 -0.538304,0.29662 z m 6.470645,0.88985 h -1.021679 v -5.71261 h 1.021679 z m -0.516332,-6.74528 q -0.274645,0 -0.47239,-0.17577 -0.186758,-0.18676 -0.186758,-0.49436 0,-0.3076 0.186758,-0.48338 0.197745,-0.18675 0.47239,-0.18675 0.274645,0 0.461403,0.18675 0.197745,0.17578 0.197745,0.48338 0,0.3076 -0.197745,0.49436 -0.186758,0.17577 -0.461403,0.17577 z m 3.229827,1.03267 h 2.164202 v 0.85689 h -2.164202 v 2.63659 q 0,0.42845 0.06591,0.71408 0.06591,0.27464 0.197744,0.43943 0.13183,0.1538 0.329574,0.21972 0.197744,0.0659 0.461404,0.0659 0.461403,0 0.736048,-0.0989 0.285631,-0.10986 0.395489,-0.1538 l 0.197744,0.84591 q -0.153801,0.0769 -0.538304,0.18675 -0.384503,0.12085 -0.878864,0.12085 -0.582247,0 -0.96675,-0.14282 -0.373517,-0.1538 -0.604219,-0.45041 -0.230702,-0.29662 -0.329574,-0.72507 -0.08789,-0.43943 -0.08789,-1.01069 v -5.09741 l 1.02168,-0.17578 z"
       id="text31"
       style="font-size:10.9858px;font-family:Ubuntu;-inkscape-font-specification:Ubuntu;fill:#ffffff;stroke-width:6.92017"
       aria-label="ribbit" />
    <g
       id="g23"
       transform="matrix(0.07986397,0,0,0.07986397,-27.45964,98.087738)"
       style="fill:#7bff5c;fill-opacity:1">
      <path
         d="m 999.26811,370.05279 c -0.66362,-1.38515 -1.53972,-2.75149 -2.9947,-3.24335 -1.4439,-0.48872 -3.18752,-0.68264 -5.203,-0.50179 -4.16714,0.37373 -7.68017,3.58206 -6.79568,6.31525 0.70417,2.17599 3.95885,2.43734 6.40622,2.51157 1.22191,0.0366 1.97747,1.14366 2.14024,2.35476 0.25722,1.91464 1.62779,3.51096 5.50951,2.44257 0.19324,-0.0533 0.37969,-0.13852 0.54507,-0.25194 1.02313,-0.6999 2.35043,-1.83729 2.74843,-3.73939 0.275,-1.31459 -0.4117,-2.58004 -1.1389,-3.70907 -0.4506,-0.69937 -0.85726,-1.42697 -1.21719,-2.17861 z"
         fill="#f2f2f2"
         id="path1-0-1"
         style="fill:#7bff5c;fill-opacity:1;stroke-width:0.522699" />
      <path
         d="m 1060.9807,399.74574 c -1.4688,0.0319 -3.0008,0.33819 -3.9694,1.44317 -0.5984,0.68317 -1.0474,1.46461 -1.3004,2.32915 -1.957,6.6895 5.205,10.19733 7.3015,5.68958 0.3414,-0.73335 1.301,-1.13844 1.9952,-0.72289 5.7779,3.45713 11.9269,1.57593 9.6992,-3.80264 -0.909,-2.19377 -2.3119,-3.78486 -3.9547,-4.85378 -1.1845,-0.77046 -2.658,-0.81123 -4.0536,-0.59222 -1.8948,0.29794 -3.8052,0.46782 -5.7178,0.50963 z"
         fill="#f2f2f2"
         id="path2-6-5-6"
         style="fill:#7bff5c;fill-opacity:1;stroke-width:0.522699" />
      <path
         d="m 1119.1095,372.96056 c -0.8985,1.26807 -1.8414,2.73842 -1.2874,4.191 1.22,3.19996 6.079,5.06025 8.0428,5.06025 3.4022,0 6.2013,-0.69153 5.5249,-3.77911 -0.1296,-0.59379 0.1553,-1.22364 0.7318,-1.41599 1.9429,-0.64658 4.5673,-1.73641 4.5673,-3.73991 0,-3.69601 -3.6081,-4.00806 -8.544,-4.00806 -1.5644,0 -3.9014,0.19967 -5.988,0.96281 -1.3136,0.48036 -2.2387,1.58796 -3.0474,2.72901 z"
         fill="#f2f2f2"
         id="path3-22-5-6"
         style="fill:#7bff5c;fill-opacity:1;stroke-width:0.522699" />
      <path
         id="path4-33-7-8"
         style="fill:#7bff5c;fill-opacity:1;stroke-width:0.522699"
         d="m 1059.9784,302.16539 c -4.82,-0.1184 -9.6604,0.59691 -14.302,2.15077 l -13.8105,4.62349 c -2.2381,0.74929 -2.142,2.90918 -1.0594,5.00641 0.1227,0.23751 0.2484,0.5124 0.3804,0.83354 0.2517,0.61235 0.4766,1.23393 0.6738,1.86294 1.0086,3.21703 2.8712,6.25643 5.9014,7.73441 l 4.8354,2.35851 c 2.9627,1.44496 6.4212,1.09128 9.5255,-0.0176 2.9213,-1.04352 6.0511,-1.49559 9.2067,-1.29346 6.0873,0.38999 11.7705,3.18233 15.799,7.76232 4.0289,4.58001 6.0724,10.5728 5.6824,16.65996 -0.3371,5.26588 -2.4724,10.22956 -6.0074,14.0808 -0.9174,0.99992 -2.4807,0.89213 -3.3771,-0.12661 -0.8943,-1.01717 -0.7815,-2.55665 0.1013,-3.58376 2.6726,-3.11005 4.2881,-7.15491 4.2881,-11.57707 0,-9.81505 -7.9572,-17.77204 -17.772,-17.77204 -2.257,0 -4.4159,0.42077 -6.4022,1.18804 -3.5271,1.36251 -7.5198,2.14407 -10.9228,0.49506 l -9.2935,-4.5036 c -3.5282,-1.70975 -5.3902,-5.52775 -6.4864,-9.29194 -2.1368,-7.33686 -8.9552,-12.94959 -17.015,-12.97699 h -0.059 c -9.0818,0 -16.57227,6.81238 -17.64082,15.60577 -0.0863,0.70998 -0.13074,1.43303 -0.13074,2.16627 0,1.19751 0.11831,2.36738 0.34416,3.4985 0.52945,2.65212 1.64909,5.09136 3.21635,7.17475 0.43797,0.58229 0.9111,1.13678 1.41593,1.66037 2.84996,2.95593 5.47772,6.5046 5.47772,10.61072 v 14.97945 c 0,5.58188 3.1752,10.67736 8.1861,13.13718 l 32.7261,16.06569 c 10.4603,5.13496 22.7088,5.13496 33.1685,0 l 32.7267,-16.06569 c 5.0106,-2.45982 8.186,-7.5553 8.186,-13.13718 v -29.58114 c 0,-5.58206 -3.1754,-10.67785 -8.186,-13.1377 l -35.1974,-13.73973 c -4.5595,-1.77988 -9.359,-2.73207 -14.1789,-2.85047 z m -50.1137,8.84028 c 6.9283,0 12.5449,5.61668 12.5449,12.54497 0,6.92827 -5.6166,12.54446 -12.5449,12.54446 -6.9283,0 -12.54449,-5.61619 -12.54449,-12.54446 0,-6.92829 5.61619,-12.54497 12.54449,-12.54497 z m 50.1793,25.08943 c 6.9284,0 12.545,5.61665 12.545,12.54497 0,6.9283 -5.6166,12.54445 -12.545,12.54445 -6.9283,0 -12.5445,-5.61615 -12.5445,-12.54445 0,-6.92832 5.6162,-12.54497 12.5445,-12.54497 z m -36.6515,2.92747 c 0.4514,7.9e-4 0.9146,0.1035 1.3607,0.32556 l 13.6378,6.78873 c 1.0418,0.51867 1.7007,1.58225 1.7007,2.74609 0,2.27797 -2.3949,3.76116 -4.4343,2.74608 l -13.6379,-6.78873 c -1.042,-0.51862 -1.7007,-1.58225 -1.7007,-2.74609 0,-1.77967 1.4617,-3.07446 3.0737,-3.07164 z" />
    </g>
  </g>
</svg>
