<?xml version="1.0" encoding="UTF-8" standalone="no"?>
<!-- Created with Inkscape (http://www.inkscape.org/) -->

<svg
   width="35.477352mm"
   height="11.394543mm"
   viewBox="0 0 35.477352 11.394543"
   version="1.1"
   id="svg1"
   xmlns="http://www.w3.org/2000/svg"
   xmlns:svg="http://www.w3.org/2000/svg">
  <defs
     id="defs1" />
  <g
     id="layer1"
     transform="translate(-92.339573,-125.67708)">
    <path
       d="m 97.22791,128.76336 c -0.153842,0.14201 -0.153842,0.14201 -0.165676,0.0947 -0.02367,-0.0237 -0.0355,-0.071 -0.0355,-0.10651 -0.02367,-0.1065 -0.130174,-0.31951 -0.201178,-0.43785 -0.11834,-0.17751 -0.284016,-0.28402 -0.508862,-0.34319 -0.189344,-0.0355 -0.319518,-0.0237 -0.53253,0.0828 -0.106506,0.0473 -0.17751,0.0947 -0.331352,0.24851 -0.248514,0.24852 -0.41419,0.50886 -0.603534,0.93489 -0.106506,0.24851 -0.284016,0.84021 -0.366854,1.23073 -0.02367,0.13018 -0.0355,0.17751 -0.08284,0.41419 -0.04734,0.28402 -0.11834,0.84022 -0.142008,1.27808 -0.05917,0.7337 0.02367,1.60942 0.213012,2.30763 0.0355,0.1065 0.106506,0.35502 0.130174,0.40235 0,0.0118 0.02367,0.071 0.04734,0.13018 0.153842,0.37868 0.331352,0.65087 0.579866,0.89938 0.142008,0.14201 0.319518,0.26035 0.47336,0.30768 0.106506,0.0237 0.307684,0.0237 0.41419,0 0.260348,-0.071 0.461526,-0.26034 0.639036,-0.60353 0.248514,-0.47336 0.41419,-1.15973 0.544364,-2.21296 0.04734,-0.36685 0.106506,-1.04139 0.09467,-1.27807 0,-0.071 0,-0.14201 0,-0.15384 0,-0.0237 0.02367,-0.0237 0.213012,0.071 0.071,0.0355 0.142008,0.0592 0.153842,0.0592 0,0 0.0355,0.0118 0.05917,0.0355 0.0355,0.0118 0.142008,0.0473 0.248514,0.0828 0.5917,0.20118 1.147898,0.22485 1.644926,0.0828 0.130174,-0.0355 0.41419,-0.14201 0.48519,-0.18934 0.41419,-0.22485 0.78105,-0.62721 0.99406,-1.05323 0.0592,-0.15384 0.16568,-0.41419 0.18934,-0.54436 0.13018,-0.65087 0.0828,-1.19524 -0.16567,-1.6686 -0.27218,-0.5562 -0.74554,-0.86388 -1.420082,-0.94672 -0.76921,-0.071 -1.988112,0.33135 -2.567978,0.87572 z m 2.98217,2.3313 c -0.224848,0.23668 -0.426026,0.34318 -0.804714,0.43785 -0.17751,0.0355 -0.733708,0.0355 -0.982222,0 -0.390522,-0.071 -0.65087,-0.15384 -0.982222,-0.30768 -0.319518,-0.15384 -0.437858,-0.23668 -0.47336,-0.33135 -0.01183,-0.0473 -0.02367,-0.0828 -0.0355,-0.0947 -0.02367,-0.0237 -0.130174,0.13017 -0.165676,0.23668 -0.0355,0.0828 -0.0355,0.11834 -0.02367,0.18934 0.02367,0.10651 0.071,0.20118 0.11834,0.28402 0.04734,0.0473 0.04734,0.0473 0.02367,0.42602 0,0.21301 -0.02367,0.41419 -0.02367,0.46153 0,0.0473 -0.01183,0.16567 -0.02367,0.27218 -0.0355,0.36685 -0.09467,0.74554 -0.165676,1.11239 -0.04734,0.23668 -0.04734,0.26035 -0.142008,0.62721 -0.106506,0.47336 -0.284016,0.87571 -0.437858,1.04139 -0.11834,0.11834 -0.165676,0.11834 -0.319518,-0.0473 -0.23668,-0.22484 -0.437858,-0.5917 -0.579866,-1.02956 -0.071,-0.20117 -0.165676,-0.6627 -0.213012,-1.01772 -0.0355,-0.26035 -0.04734,-1.23074 -0.01183,-1.55025 0.071,-0.61537 0.09467,-0.81655 0.189344,-1.27808 0.04734,-0.28401 0.04734,-0.27218 0.09467,-0.44969 0.02367,-0.0828 0.04734,-0.20118 0.071,-0.26035 0.0355,-0.13017 0.153842,-0.52069 0.189344,-0.5917 0.201178,-0.46152 0.47336,-0.75737 0.662704,-0.75737 0.01183,0 0.05917,0.0118 0.09467,0.0237 0.17751,0.0828 0.248514,0.20117 0.437858,0.75737 0.0355,0.0828 0.071,0.17751 0.09467,0.20118 0.0355,0.0355 0.05917,0.0592 0.05917,0.071 0,0.0473 0.05917,0.10651 0.106506,0.13018 0.08284,0.0237 0.130174,0 0.224846,-0.11834 0.142008,-0.18935 0.497028,-0.41419 0.88755,-0.56803 0.05917,-0.0355 0.130174,-0.0592 0.153842,-0.071 0.23668,-0.0947 0.568032,-0.18934 0.934886,-0.23668 0.23668,-0.0355 0.5917,-0.0237 0.757376,0.0118 0.284018,0.0828 0.497028,0.26034 0.615368,0.49702 0.11834,0.23668 0.14201,0.33136 0.14201,0.66271 -0.0118,0.24851 -0.0118,0.30768 -0.0592,0.48519 -0.0828,0.31952 -0.20118,0.5562 -0.41419,0.78105 z m 3.27803,-0.65087 c 0,-0.0355 0.0237,-0.13018 0.0355,-0.20118 0.0828,-0.34319 0.1065,-0.43786 0.1065,-0.67454 0,-0.29585 -0.0237,-0.42602 -0.13017,-0.63904 -0.15384,-0.30768 -0.42602,-0.53253 -0.74554,-0.61536 -0.20118,-0.0473 -0.54437,-0.0237 -0.74554,0.0473 -0.10651,0.0355 -0.13018,0.0473 -0.26035,0.10651 -0.49703,0.26035 -0.92305,0.72187 -1.06506,1.19523 -0.071,0.21301 -0.0947,0.37869 -0.0947,0.5917 0,0.26035 0.0355,0.43786 0.142,0.66271 0.13018,0.27218 0.37869,0.50886 0.5917,0.57986 0.0355,0 0.0473,0.0592 0.071,0.50886 0.0237,0.27219 0.0237,0.43786 0,0.75738 -0.0118,0.23668 -0.0237,0.5917 -0.0355,0.79288 -0.0355,0.88755 0.0592,1.43191 0.35502,1.86977 0.16567,0.26035 0.43785,0.47336 0.6627,0.53253 0.0473,0 0.0947,0.0237 0.11834,0.0237 0.0237,0.0118 0.14201,0.0118 0.27218,0 0.29585,0 0.43786,-0.0473 0.67454,-0.20118 0.36685,-0.24851 0.6627,-0.68637 0.95855,-1.38458 0.16568,-0.40235 0.24852,-0.68637 0.29585,-1.02956 0.0355,-0.20117 0.0355,-0.72187 0,-0.93488 -0.142,-0.97039 -0.56803,-1.71593 -1.11239,-1.90528 -0.0947,-0.0355 -0.0947,-0.0355 -0.0947,-0.0828 z m -0.17751,4.34307 c -0.11834,0.17751 -0.31952,0.36686 -0.42603,0.42603 -0.0947,0.0355 -0.29585,0.0592 -0.37869,0.0355 -0.142,-0.0355 -0.31951,-0.27218 -0.41419,-0.53253 -0.1065,-0.34319 -0.13017,-0.6627 -0.11834,-1.8461 0,-0.92306 0,-0.99406 -0.0355,-1.17157 -0.0237,-0.10651 -0.0473,-0.20118 -0.0473,-0.20118 0,-0.0118 0.0592,-0.0355 0.11834,-0.071 0.142,-0.071 0.21301,-0.13018 0.27218,-0.23668 0.0237,-0.0473 0.0473,-0.0947 0.0473,-0.0947 0,0 -0.17751,0 -0.39052,0 -0.43786,0 -0.46152,0 -0.60353,-0.15385 -0.11834,-0.13017 -0.16568,-0.22484 -0.22485,-0.46152 -0.071,-0.28402 0.0237,-0.67454 0.24852,-1.00589 0.142,-0.20118 0.39052,-0.41419 0.63903,-0.54437 0.17751,-0.0947 0.28402,-0.11834 0.47336,-0.11834 0.15384,0 0.18935,0.0118 0.26035,0.0473 0.18934,0.0947 0.31952,0.36685 0.31952,0.63904 0,0.18934 -0.0828,0.57986 -0.22485,0.95855 -0.0828,0.26035 -0.071,0.39052 0.0355,0.50886 0.071,0.0828 0.16568,0.0947 0.36686,0.0828 0.17751,-0.0118 0.18934,-0.0118 0.31952,0.0947 0.13017,0.11834 0.28401,0.50886 0.37868,0.92305 0.071,0.41419 0.071,0.89939 -0.0118,1.33725 -0.071,0.35502 -0.35502,1.01772 -0.60353,1.38457 z m 3.94073,-1.52658 c 0.0592,0.14201 0.0473,0.15384 -0.0118,0.21301 -0.0355,0.0237 -0.0828,0.0828 -0.11834,0.14201 -0.0355,0.0473 -0.0828,0.1065 -0.0947,0.13017 -0.0118,0.0118 -0.0355,0.0473 -0.0355,0.0592 0,0.0355 0.0237,0.0355 0.14201,0.0355 0.071,0 0.17751,-0.0118 0.21301,-0.0237 0.21301,-0.0355 0.20118,-0.0355 0.29585,0.0592 0.11834,0.1065 0.17751,0.15384 0.30769,0.20117 0.13017,0.0592 0.37868,0.0592 0.52069,0.0237 0.0947,-0.0355 0.10651,-0.0473 0.0828,-0.0592 -0.0118,-0.0118 -0.071,-0.0947 -0.14201,-0.18934 -0.0592,-0.0947 -0.14201,-0.22485 -0.17751,-0.28402 -0.0473,-0.0592 -0.0828,-0.1065 -0.0828,-0.11834 0,-0.0118 0.0473,-0.0473 0.10651,-0.0947 0.23668,-0.17751 0.42602,-0.42602 0.42602,-0.57987 0,-0.0947 -0.0355,-0.11834 -0.16567,-0.11834 -0.10651,0 -0.13018,0.0118 -0.26035,0.0828 -0.0828,0.0473 -0.20118,0.10651 -0.26035,0.14201 -0.0473,0.0473 -0.0947,0.071 -0.1065,0.071 -0.0118,-0.0118 -0.0355,-0.0473 -0.0592,-0.0947 -0.15385,-0.29585 -0.43786,-0.35502 -0.57987,-0.0947 -0.0473,0.0947 -0.0473,0.34319 0,0.49703 z m 0.24851,-4.47325 c -0.22484,-0.21302 -0.44969,-0.34319 -0.71004,-0.41419 -0.35502,-0.0947 -0.61536,-0.0592 -0.94672,0.15384 -0.30768,0.18934 -0.57986,0.48519 -0.82838,0.86388 -0.18934,0.30768 -0.44969,0.93489 -0.63903,1.58576 -0.40236,1.37274 -0.40236,2.14195 -0.0118,2.97033 0.23668,0.50886 0.67454,0.99406 1.19524,1.33724 0.49703,0.31952 1.10056,0.54437 1.78693,0.61537 0.23668,0.0355 0.85205,0.0355 1.08873,0.0118 0.82838,-0.0828 1.46742,-0.34318 1.95261,-0.75737 0.48519,-0.41419 0.81655,-1.1124 0.81655,-1.72777 0,-0.22484 -0.0237,-0.31951 -0.0828,-0.53253 -0.17751,-0.54436 -0.68637,-1.2544 -1.08873,-1.53842 -0.30768,-0.22484 -0.72187,-0.36685 -1.1834,-0.42602 -0.21301,-0.0355 -0.80471,-0.0355 -0.91122,-0.0118 -0.0355,0.0118 -0.0828,0.0237 -0.0947,0.0118 0,-0.0118 0,-0.0947 0.0237,-0.21301 0.071,-0.41419 0.1065,-0.85205 0.071,-1.08873 -0.0592,-0.35502 -0.17751,-0.56803 -0.43786,-0.84021 z m 2.03545,3.20701 c 0.30769,0.21301 0.75738,0.85205 0.88755,1.23074 0.11834,0.39052 -0.0828,0.97038 -0.47336,1.34907 -0.31952,0.29585 -0.74554,0.47336 -1.34907,0.56803 -0.14201,0.0237 -0.35502,0.0355 -0.54437,0.0473 -1.05322,0.0237 -1.96444,-0.31952 -2.56798,-0.95855 -0.33135,-0.34319 -0.49702,-0.66271 -0.57986,-1.08873 -0.0237,-0.15384 -0.0237,-0.65087 0,-0.87572 0.0473,-0.34318 0.15384,-0.84021 0.27218,-1.24257 0.0355,-0.1065 0.0592,-0.21301 0.071,-0.23668 0.0592,-0.26035 0.21302,-0.68637 0.28402,-0.84021 0.15384,-0.33135 0.47336,-0.72188 0.68637,-0.84022 0.0947,-0.0592 0.11834,-0.0592 0.26035,-0.0592 0.22485,0 0.35502,0.071 0.5917,0.29585 0.18934,0.18935 0.24851,0.34319 0.24851,0.67454 0,0.40236 -0.142,1.08873 -0.27218,1.44375 -0.0355,0.10651 -0.18934,0.41419 -0.24851,0.50886 -0.0828,0.15384 -0.11834,0.37869 -0.0828,0.44969 0.0355,0.071 0.11834,0.0828 0.20118,0.0473 0.1065,-0.0473 0.48519,-0.53253 0.63903,-0.84021 0.0355,-0.0473 0.0592,-0.0947 0.0592,-0.0947 0.0118,0 0.0592,0.0118 0.11834,0.0237 0.0355,0.0118 0.18935,0.0355 0.30769,0.0355 0.6982,0.0592 1.1834,0.18935 1.49108,0.40236 z m 4.31942,1.26624 c 0.0592,0.14201 0.0473,0.15384 -0.0118,0.21301 -0.0355,0.0237 -0.0828,0.0828 -0.11834,0.14201 -0.0355,0.0473 -0.0828,0.1065 -0.0947,0.13017 -0.0118,0.0118 -0.0355,0.0473 -0.0355,0.0592 0,0.0355 0.0237,0.0355 0.14201,0.0355 0.071,0 0.17751,-0.0118 0.21301,-0.0237 0.21301,-0.0355 0.20118,-0.0355 0.29585,0.0592 0.11834,0.1065 0.17751,0.15384 0.30768,0.20117 0.13018,0.0592 0.37869,0.0592 0.5207,0.0237 0.0947,-0.0355 0.10651,-0.0473 0.0828,-0.0592 -0.0118,-0.0118 -0.071,-0.0947 -0.14201,-0.18934 -0.0592,-0.0947 -0.14201,-0.22485 -0.17751,-0.28402 -0.0473,-0.0592 -0.0828,-0.1065 -0.0828,-0.11834 0,-0.0118 0.0473,-0.0473 0.10651,-0.0947 0.23668,-0.17751 0.42602,-0.42602 0.42602,-0.57987 0,-0.0947 -0.0355,-0.11834 -0.16567,-0.11834 -0.10651,0 -0.13018,0.0118 -0.26035,0.0828 -0.0828,0.0473 -0.20118,0.10651 -0.26035,0.14201 -0.0473,0.0473 -0.0947,0.071 -0.10651,0.071 -0.0118,-0.0118 -0.0355,-0.0473 -0.0592,-0.0947 -0.15384,-0.29585 -0.43785,-0.35502 -0.57986,-0.0947 -0.0473,0.0947 -0.0473,0.34319 0,0.49703 z m 0.24851,-4.47325 c -0.22484,-0.21302 -0.44969,-0.34319 -0.71004,-0.41419 -0.35502,-0.0947 -0.61537,-0.0592 -0.94672,0.15384 -0.30768,0.18934 -0.57986,0.48519 -0.82838,0.86388 -0.18934,0.30768 -0.44969,0.93489 -0.63903,1.58576 -0.40236,1.37274 -0.40236,2.14195 -0.0118,2.97033 0.23668,0.50886 0.67454,0.99406 1.19524,1.33724 0.49702,0.31952 1.10056,0.54437 1.78693,0.61537 0.23668,0.0355 0.85205,0.0355 1.08873,0.0118 0.82838,-0.0828 1.46741,-0.34318 1.95261,-0.75737 0.48519,-0.41419 0.81654,-1.1124 0.81654,-1.72777 0,-0.22484 -0.0237,-0.31951 -0.0828,-0.53253 -0.17751,-0.54436 -0.68637,-1.2544 -1.08872,-1.53842 -0.30769,-0.22484 -0.72188,-0.36685 -1.1834,-0.42602 -0.21301,-0.0355 -0.80471,-0.0355 -0.91122,-0.0118 -0.0355,0.0118 -0.0828,0.0237 -0.0947,0.0118 0,-0.0118 0,-0.0947 0.0237,-0.21301 0.071,-0.41419 0.1065,-0.85205 0.071,-1.08873 -0.0592,-0.35502 -0.17751,-0.56803 -0.43786,-0.84021 z m 2.03545,3.20701 c 0.30768,0.21301 0.75737,0.85205 0.88755,1.23074 0.11834,0.39052 -0.0828,0.97038 -0.47336,1.34907 -0.31952,0.29585 -0.74554,0.47336 -1.34908,0.56803 -0.142,0.0237 -0.35502,0.0355 -0.54436,0.0473 -1.05323,0.0237 -1.96444,-0.31952 -2.56798,-0.95855 -0.33135,-0.34319 -0.49703,-0.66271 -0.57986,-1.08873 -0.0237,-0.15384 -0.0237,-0.65087 0,-0.87572 0.0473,-0.34318 0.15384,-0.84021 0.27218,-1.24257 0.0355,-0.1065 0.0592,-0.21301 0.071,-0.23668 0.0592,-0.26035 0.21301,-0.68637 0.28402,-0.84021 0.15384,-0.33135 0.47336,-0.72188 0.68637,-0.84022 0.0947,-0.0592 0.11834,-0.0592 0.26035,-0.0592 0.22484,0 0.35502,0.071 0.5917,0.29585 0.18934,0.18935 0.24851,0.34319 0.24851,0.67454 0,0.40236 -0.14201,1.08873 -0.27218,1.44375 -0.0355,0.10651 -0.18934,0.41419 -0.24851,0.50886 -0.0828,0.15384 -0.11834,0.37869 -0.0828,0.44969 0.0355,0.071 0.11834,0.0828 0.20118,0.0473 0.1065,-0.0473 0.48519,-0.53253 0.63903,-0.84021 0.0355,-0.0473 0.0592,-0.0947 0.0592,-0.0947 0.0118,0 0.0592,0.0118 0.11834,0.0237 0.0355,0.0118 0.18935,0.0355 0.30769,0.0355 0.6982,0.0592 1.18339,0.18935 1.49108,0.40236 z m 3.3727,-1.55025 c 0,-0.0355 0.0237,-0.13018 0.0355,-0.20118 0.0828,-0.34319 0.1065,-0.43786 0.1065,-0.67454 0,-0.29585 -0.0237,-0.42602 -0.13017,-0.63904 -0.15384,-0.30768 -0.42602,-0.53253 -0.74554,-0.61536 -0.20118,-0.0473 -0.54437,-0.0237 -0.74554,0.0473 -0.10651,0.0355 -0.13018,0.0473 -0.26035,0.10651 -0.49703,0.26035 -0.92305,0.72187 -1.06506,1.19523 -0.071,0.21301 -0.0947,0.37869 -0.0947,0.5917 0,0.26035 0.0355,0.43786 0.142,0.66271 0.13018,0.27218 0.37869,0.50886 0.5917,0.57986 0.0355,0 0.0473,0.0592 0.071,0.50886 0.0237,0.27219 0.0237,0.43786 0,0.75738 -0.0118,0.23668 -0.0237,0.5917 -0.0355,0.79288 -0.0355,0.88755 0.0592,1.43191 0.35502,1.86977 0.16567,0.26035 0.43785,0.47336 0.6627,0.53253 0.0473,0 0.0947,0.0237 0.11834,0.0237 0.0237,0.0118 0.14201,0.0118 0.27218,0 0.29585,0 0.43786,-0.0473 0.67454,-0.20118 0.36685,-0.24851 0.6627,-0.68637 0.95855,-1.38458 0.16568,-0.40235 0.24852,-0.68637 0.29585,-1.02956 0.0355,-0.20117 0.0355,-0.72187 0,-0.93488 -0.142,-0.97039 -0.56803,-1.71593 -1.11239,-1.90528 -0.0947,-0.0355 -0.0947,-0.0355 -0.0947,-0.0828 z m -0.17751,4.34307 c -0.11834,0.17751 -0.31952,0.36686 -0.42603,0.42603 -0.0947,0.0355 -0.29585,0.0592 -0.37869,0.0355 -0.142,-0.0355 -0.31951,-0.27218 -0.41419,-0.53253 -0.1065,-0.34319 -0.13017,-0.6627 -0.11834,-1.8461 0,-0.92306 0,-0.99406 -0.0355,-1.17157 -0.0237,-0.10651 -0.0473,-0.20118 -0.0473,-0.20118 0,-0.0118 0.0592,-0.0355 0.11834,-0.071 0.142,-0.071 0.21301,-0.13018 0.27218,-0.23668 0.0237,-0.0473 0.0473,-0.0947 0.0473,-0.0947 0,0 -0.17751,0 -0.39052,0 -0.43786,0 -0.46152,0 -0.60353,-0.15385 -0.11834,-0.13017 -0.16568,-0.22484 -0.22485,-0.46152 -0.071,-0.28402 0.0237,-0.67454 0.24852,-1.00589 0.142,-0.20118 0.39052,-0.41419 0.63903,-0.54437 0.17751,-0.0947 0.28402,-0.11834 0.47336,-0.11834 0.15384,0 0.18935,0.0118 0.26035,0.0473 0.18934,0.0947 0.31952,0.36685 0.31952,0.63904 0,0.18934 -0.0828,0.57986 -0.22485,0.95855 -0.0828,0.26035 -0.071,0.39052 0.0355,0.50886 0.071,0.0828 0.16568,0.0947 0.36686,0.0828 0.17751,-0.0118 0.18934,-0.0118 0.31952,0.0947 0.13017,0.11834 0.28401,0.50886 0.37868,0.92305 0.071,0.41419 0.071,0.89939 -0.0118,1.33725 -0.071,0.35502 -0.35502,1.01772 -0.60353,1.38457 z m 4.49693,-8.20096 c -0.11834,-0.1065 -0.36686,-0.22484 -0.54437,-0.28401 -0.22484,-0.0592 -0.61537,-0.0473 -0.80471,0.0355 -0.47336,0.21301 -0.76921,0.46152 -1.10056,0.93488 -0.41419,0.57987 -0.79288,1.50292 -0.97039,2.3313 -0.0118,0.071 -0.0355,0.18935 -0.0473,0.24852 -0.11834,0.54436 -0.21301,1.2899 -0.26034,1.97627 -0.0592,0.88755 0.0355,1.7396 0.22484,2.30763 0.0947,0.30769 0.34319,0.76921 0.56803,1.0769 0.35502,0.48519 0.94672,0.93488 1.51476,1.12423 0.16567,0.0592 0.44969,0.11834 0.6272,0.14201 0.11834,0.0118 0.68637,0 0.84021,-0.0237 0.97039,-0.16568 1.58576,-0.5562 1.91711,-1.20707 0.071,-0.14201 0.16568,-0.40236 0.18934,-0.53253 0.0118,-0.0473 0.0355,-0.14201 0.0473,-0.23668 0.0237,-0.10651 0.0237,-0.22485 0.0237,-0.44969 0,-0.26035 0,-0.30769 -0.0355,-0.42603 -0.0592,-0.16567 -0.0947,-0.22484 -0.18935,-0.36685 -0.14201,-0.17751 -0.36685,-0.31952 -0.60353,-0.39052 -0.15384,-0.0473 -0.53253,-0.0473 -0.69821,0 -0.22484,0.0473 -0.40235,0.11834 -0.6272,0.21301 -0.10651,0.0473 -0.20118,0.0828 -0.21301,0.0828 0,0 0.0118,-0.0473 0.0355,-0.11834 0.0828,-0.22485 0.10651,-0.36686 0.10651,-0.61537 0,-0.17751 -0.0118,-0.26035 -0.0355,-0.36685 -0.0237,-0.071 -0.0473,-0.13018 -0.0355,-0.13018 0.0118,-0.0118 0.10651,-0.0237 0.22485,-0.0237 0.13017,-0.0118 0.26035,-0.0237 0.29585,-0.0355 0.0473,-0.0118 0.14201,-0.0237 0.22484,-0.0473 0.18935,-0.0355 0.47336,-0.13018 0.61537,-0.21302 0.39052,-0.23668 0.63904,-0.65087 0.63904,-1.10056 0,-0.24851 -0.071,-0.42602 -0.22485,-0.5917 -0.23668,-0.26035 -0.63903,-0.37869 -1.10056,-0.30768 -0.31952,0.0473 -0.34319,0.0473 -0.34319,0.0355 0,0 0.0237,-0.071 0.0355,-0.14201 0.142,-0.34318 0.18934,-0.76921 0.18934,-1.30174 0,-0.81654 -0.13017,-1.27807 -0.48519,-1.59759 z m 1.34907,3.91706 c 0,0.13017 0,0.17751 -0.0473,0.26034 -0.11834,0.26035 -0.4497,0.42603 -1.10057,0.54437 -0.0947,0.0237 -0.29585,0.0355 -0.54436,0.0473 h -0.41419 l -0.0828,-0.0473 c -0.0473,-0.0355 -0.0947,-0.0592 -0.0947,-0.0592 -0.0237,0 -0.0237,0.15384 0.0118,0.22484 0.0237,0.0947 0.10651,0.17751 0.20118,0.24852 0.071,0.0473 0.10651,0.0828 0.11834,0.16567 0.11834,0.29585 0.14201,0.81655 0.071,1.08873 -0.071,0.23668 -0.0828,0.26035 -0.0828,0.31952 -0.0118,0.0355 -0.0237,0.0592 -0.0237,0.071 -0.0118,0.0118 -0.0237,0.0237 -0.0237,0.0473 0,0.0355 -0.0473,0.10651 -0.14201,0.20118 -0.20117,0.22484 -0.29585,0.37869 -0.36685,0.60353 -0.0118,0.0592 -0.0355,0.13018 -0.0473,0.15384 -0.0118,0.0473 -0.0118,0.11834 0,0.13018 0.0118,0 0.0828,-0.0355 0.14201,-0.10651 0.14201,-0.11834 0.27218,-0.21301 0.4852,-0.33135 0.36685,-0.17751 0.63903,-0.28402 0.98222,-0.36685 0.16567,-0.0473 0.24851,-0.0473 0.43786,-0.0473 0.26034,0 0.34318,0.0118 0.44969,0.0947 0.0947,0.071 0.13017,0.16568 0.13017,0.36686 0,0.42602 -0.17751,0.85204 -0.44969,1.06506 -0.24851,0.21301 -0.65087,0.36685 -1.12423,0.42602 -0.56803,0.0828 -1.02956,-0.0237 -1.55025,-0.37869 -0.30769,-0.20118 -0.61537,-0.56803 -0.85205,-0.99405 -0.30769,-0.56804 -0.41419,-1.25441 -0.37869,-2.42597 0.0473,-1.7751 0.48519,-3.36086 1.1479,-4.30758 0.17751,-0.23668 0.36685,-0.40236 0.57986,-0.49703 0.0237,-0.0118 0.071,-0.0237 0.0947,-0.0355 0.0592,-0.0355 0.37868,-0.0237 0.43785,0 0.0237,0.0118 0.0828,0.0355 0.10651,0.0592 0.15384,0.071 0.26035,0.20118 0.33135,0.40236 0.10651,0.29585 0.13018,0.50886 0.13018,1.05322 0,0.44969 -0.0237,0.69821 -0.071,0.94672 -0.0118,0.0592 -0.0355,0.17751 -0.0592,0.24852 -0.0118,0.071 -0.0237,0.142 -0.0355,0.16567 0,0.0118 -0.0592,0.0592 -0.13017,0.10651 -0.14201,0.0947 -0.28402,0.22484 -0.34319,0.33135 -0.0592,0.0828 -0.0592,0.23668 -0.0237,0.27218 0.0237,0.0355 0.10651,0.0473 0.15384,0.0118 0.11834,-0.071 0.53253,-0.24852 0.63904,-0.28402 0.60353,-0.22485 1.12423,-0.21301 1.28991,0 0.0473,0.0592 0.0592,0.0828 0.0473,0.22485 z"
       id="text2"
       style="fill:#ffffff;stroke-width:0.95843"
       aria-label="ribbit" />
  </g>
</svg>
