<?xml version="1.0" encoding="UTF-8" standalone="no"?>
<!-- Created with Inkscape (http://www.inkscape.org/) -->

<svg
   width="35.477352mm"
   height="11.394543mm"
   viewBox="0 0 35.477352 11.394543"
   version="1.1"
   id="svg1"
   sodipodi:docname="logotype.svg"
   inkscape:version="1.3.2 (091e20e, 2023-11-25, custom)"
   xmlns:inkscape="http://www.inkscape.org/namespaces/inkscape"
   xmlns:sodipodi="http://sodipodi.sourceforge.net/DTD/sodipodi-0.dtd"
   xmlns="http://www.w3.org/2000/svg"
   xmlns:svg="http://www.w3.org/2000/svg">
  <sodipodi:namedview
     id="namedview1"
     pagecolor="#ffffff"
     bordercolor="#000000"
     borderopacity="0.25"
     inkscape:showpageshadow="2"
     inkscape:pageopacity="0.0"
     inkscape:pagecheckerboard="0"
     inkscape:deskcolor="#d1d1d1"
     inkscape:document-units="mm"
     inkscape:zoom="5.7533532"
     inkscape:cx="59.530501"
     inkscape:cy="14.165652"
     inkscape:window-width="1920"
     inkscape:window-height="1017"
     inkscape:window-x="-8"
     inkscape:window-y="-8"
     inkscape:window-maximized="1"
     inkscape:current-layer="svg1" />
  <defs
     id="defs1" />
  <path
     style="font-size:9.02945px;font-family:NUKLEAR;-inkscape-font-specification:NUKLEAR;text-align:center;text-anchor:middle;fill:#ffffff;stroke-width:0.731292"
     d="m 2.2238052,4.3938679 q 0.027088,0 0.081265,0 0.063206,-0.00903 0.1264123,-0.00903 0.063206,-0.00903 0.1173829,-0.00903 0.063206,0 0.090295,0 0.1896184,0 0.3431191,0.054177 0.1625301,0.054177 0.3160307,0.1173829 0.1535007,0.054177 0.3070014,0.1083534 0.1535006,0.054177 0.3340896,0.054177 0.2167068,0 0.4153547,-0.054177 0.2076774,-0.054177 0.4063253,-0.1173829 0.2076774,-0.072236 0.4153547,-0.1264123 0.2167068,-0.054177 0.4424431,-0.054177 0.3160308,0 0.6230321,0.1625301 0.3070013,0.1625301 0.5507965,0.3972958 0.2437951,0.2257363 0.3972958,0.4695314 0.1535006,0.2437952 0.1535006,0.4153548 0,0.1625301 -0.072236,0.2889424 -0.063206,0.1173828 -0.1625301,0.1986479 -0.099324,0.081265 -0.2257362,0.1264123 -0.1264123,0.036118 -0.2347658,0.036118 -0.3431191,0 -0.5688553,-0.1715596 Q 5.8536443,6.100434 5.645967,5.8927567 5.4382896,5.6850793 5.1944944,5.5135197 4.9597287,5.3329307 4.5985507,5.3329307 q -0.2167068,0 -0.4334136,0.1083534 Q 3.9484303,5.5496375 3.7768707,5.7302266 3.6143406,5.9017861 3.5059872,6.1184929 3.3976338,6.3351997 3.3976338,6.560936 v 2.2031859 q 0,0.1354418 -0.090294,0.2167068 -0.081265,0.081265 -0.1986479,0.1354418 -0.1083534,0.045147 -0.2347657,0.063206 -0.1264123,0.018059 -0.2076774,0.018059 -0.081265,0 -0.2076773,-0.00903 Q 2.3321586,9.1794766 2.2057463,9.1523883 2.0883635,9.1162705 1.998069,9.0440349 1.9168039,8.9627698 1.9168039,8.827328 V 4.7008692 q 0,-0.099324 0.1083534,-0.1896185 0.1173829,-0.090294 0.1986479,-0.1173828 z m 6.9978273,4.7585204 q -0.2167068,0 -0.361178,-0.081265 Q 8.7159833,8.9898582 8.6256888,8.8724753 8.5444238,8.746063 8.508306,8.5925623 8.4721881,8.4390617 8.4721881,8.3036199 V 5.0891356 q 0,-0.1986479 0.081265,-0.3160308 0.081265,-0.1173828 0.180589,-0.180589 0.1083534,-0.063206 0.2076774,-0.081265 0.1083534,-0.018059 0.1444712,-0.018059 h 0.2979718 q 0.00903,0 0.090295,0.027088 0.081265,0.018059 0.1805891,0.090294 0.099324,0.063206 0.180589,0.1986479 0.081265,0.1264123 0.081265,0.3431191 v 3.0880721 q 0,0.1354417 -0.027088,0.2979718 Q 9.871753,8.7009157 9.7904879,8.8363575 9.7182523,8.9717993 9.5828106,9.0620938 9.4473688,9.1523883 9.2216325,9.1523883 Z M 8.4721881,2.9581853 q 0,-0.054177 0.018059,-0.1173829 0.018059,-0.072236 0.072236,-0.1354417 0.063206,-0.072236 0.1715595,-0.1173829 0.1173829,-0.045147 0.3160308,-0.045147 h 0.2979718 q 0.1986479,0 0.3160308,0.054177 0.1173829,0.045147 0.1715596,0.1173828 0.063206,0.063206 0.072236,0.1354418 0.018059,0.063206 0.018059,0.1083534 0,0.054177 -0.018059,0.1264123 -0.018059,0.072236 -0.081265,0.1354417 -0.063206,0.054177 -0.1896184,0.099324 -0.1264124,0.045147 -0.3521486,0.045147 H 9.050073 q -0.1986479,0 -0.3160308,-0.045147 Q 8.6256888,3.274216 8.5624827,3.2110099 8.508306,3.1478037 8.4902471,3.0845976 8.4721881,3.012362 8.4721881,2.9581853 Z m 4.5147189,6.0407023 q -0.17156,0 -0.325061,0.027088 -0.144471,0.018059 -0.288942,0.054177 -0.144471,0.027088 -0.297972,0.054177 -0.153501,0.018059 -0.33409,0.018059 -0.05418,0 -0.171559,0 Q 11.4519,9.1433588 11.334517,9.0982116 11.226164,9.0530643 11.135869,8.9356815 11.045575,8.8182986 11.045575,8.5925623 V 3.1026565 q 0,-0.2167068 0.09029,-0.3340897 0.0903,-0.1173828 0.207678,-0.180589 0.117382,-0.063206 0.234765,-0.072236 0.126413,-0.018059 0.189619,-0.018059 0.07223,0 0.198648,0.027088 0.126412,0.018059 0.252824,0.081265 0.126413,0.063206 0.216707,0.1896185 0.0903,0.1173828 0.0903,0.3070013 v 0.9842101 q 0,0.261854 0.05418,0.4153547 0.06321,0.1535007 0.207678,0.2076774 0.1535,0.054177 0.406325,0.00903 0.252825,-0.045147 0.641091,-0.1715595 0.126412,-0.045147 0.478561,-0.081265 0.361178,-0.045147 0.830709,-0.027088 0.469532,0.018059 0.975181,0.1264124 0.514679,0.1083534 0.939063,0.361178 0.424384,0.2528246 0.695267,0.6952676 0.279913,0.4334137 0.279913,1.101593 0,0.6501204 -0.216706,1.1106224 -0.216707,0.460502 -0.595944,0.7584738 -0.370208,0.2979719 -0.875857,0.4424431 -0.505649,0.1354418 -1.083534,0.1354418 -0.632061,0 -0.957122,-0.027088 -0.32506,-0.027088 -0.523708,-0.054177 Q 13.58285,9.0530643 13.42935,9.025976 13.275849,8.9988876 12.986907,8.9988876 Z M 12.878553,6.7054072 q 0,0.4243842 0.16253,0.722356 0.16253,0.2979719 0.424384,0.4875904 0.261855,0.1896184 0.595944,0.2799129 0.33409,0.090294 0.677209,0.090294 0.523708,0 0.939063,-0.081265 0.424384,-0.090294 0.722356,-0.2708835 0.297972,-0.1805891 0.451472,-0.4695315 0.16253,-0.2979718 0.16253,-0.7133265 0,-0.4153548 -0.16253,-0.7133266 Q 16.688981,5.739256 16.38198,5.5496375 16.084008,5.3509896 15.659624,5.2606951 15.23524,5.1704006 14.711532,5.1704006 q -0.279913,0 -0.604974,0.099324 -0.31603,0.090294 -0.595943,0.2799129 -0.270884,0.1896185 -0.451473,0.4785609 -0.180589,0.2889424 -0.180589,0.6772088 z m 8.225831,2.2934804 q -0.17156,0 -0.32506,0.027088 -0.144471,0.018059 -0.288943,0.054177 -0.144471,0.027088 -0.297971,0.054177 -0.153501,0.018059 -0.33409,0.018059 -0.05418,0 -0.17156,0 -0.117383,-0.00903 -0.234765,-0.054177 -0.108354,-0.045147 -0.198648,-0.1625301 -0.0903,-0.1173829 -0.0903,-0.3431192 V 3.1026565 q 0,-0.2167068 0.0903,-0.3340897 0.09029,-0.1173828 0.207677,-0.180589 0.117383,-0.063206 0.234766,-0.072236 0.126412,-0.018059 0.189618,-0.018059 0.07224,0 0.198648,0.027088 0.126412,0.018059 0.252825,0.081265 0.126412,0.063206 0.216707,0.1896185 0.09029,0.1173828 0.09029,0.3070013 v 0.9842101 q 0,0.261854 0.05418,0.4153547 0.06321,0.1535007 0.207677,0.2076774 0.153501,0.054177 0.406325,0.00903 0.252825,-0.045147 0.641091,-0.1715595 0.126413,-0.045147 0.478561,-0.081265 0.361178,-0.045147 0.83071,-0.027088 0.469531,0.018059 0.97518,0.1264124 0.514679,0.1083534 0.939063,0.361178 0.424384,0.2528246 0.695268,0.6952676 0.279913,0.4334137 0.279913,1.101593 0,0.6501204 -0.216707,1.1106224 -0.216707,0.460502 -0.595944,0.7584738 -0.370207,0.2979719 -0.875856,0.4424431 -0.50565,0.1354418 -1.083534,0.1354418 -0.632062,0 -0.957122,-0.027088 -0.32506,-0.027088 -0.523708,-0.054177 -0.198648,-0.036118 -0.352149,-0.063206 -0.153501,-0.027088 -0.442443,-0.027088 z M 20.996031,6.7054072 q 0,0.4243842 0.16253,0.722356 0.16253,0.2979719 0.424384,0.4875904 0.261854,0.1896184 0.595944,0.2799129 0.334089,0.090294 0.677208,0.090294 0.523709,0 0.939063,-0.081265 0.424384,-0.090294 0.722356,-0.2708835 0.297972,-0.1805891 0.451473,-0.4695315 0.16253,-0.2979718 0.16253,-0.7133265 0,-0.4153548 -0.16253,-0.7133266 -0.16253,-0.2979719 -0.469532,-0.4875904 -0.297971,-0.1986479 -0.722356,-0.2889424 -0.424384,-0.090295 -0.948092,-0.090295 -0.279913,0 -0.604973,0.099324 -0.316031,0.090294 -0.595944,0.2799129 -0.270883,0.1896185 -0.451472,0.4785609 -0.180589,0.2889424 -0.180589,0.6772088 z m 7.042972,2.4469811 q -0.216706,0 -0.361178,-0.081265 Q 27.533354,8.9898582 27.44306,8.8724753 27.361795,8.746063 27.325677,8.5925623 27.289559,8.4390617 27.289559,8.3036199 V 5.0891356 q 0,-0.1986479 0.08126,-0.3160308 0.08127,-0.1173828 0.180589,-0.180589 0.108354,-0.063206 0.207677,-0.081265 0.108354,-0.018059 0.144472,-0.018059 h 0.297972 q 0.009,0 0.09029,0.027088 0.08127,0.018059 0.180589,0.090294 0.09932,0.063206 0.180589,0.1986479 0.08126,0.1264123 0.08126,0.3431191 v 3.0880721 q 0,0.1354417 -0.02709,0.2979718 -0.01806,0.1625301 -0.09932,0.2979719 -0.07224,0.1354418 -0.207678,0.2257363 -0.135441,0.090295 -0.361178,0.090295 z m -0.749444,-6.194203 q 0,-0.054177 0.01806,-0.1173829 0.01806,-0.072236 0.07224,-0.1354417 0.06321,-0.072236 0.171559,-0.1173829 0.117383,-0.045147 0.316031,-0.045147 h 0.297972 q 0.198648,0 0.31603,0.054177 0.117383,0.045147 0.17156,0.1173828 0.06321,0.063206 0.07224,0.1354418 0.01806,0.063206 0.01806,0.1083534 0,0.054177 -0.01806,0.1264123 -0.01806,0.072236 -0.08127,0.1354417 -0.06321,0.054177 -0.189619,0.099324 -0.126412,0.045147 -0.352148,0.045147 h -0.234766 q -0.198648,0 -0.316031,-0.045147 -0.108353,-0.045147 -0.171559,-0.1083534 -0.05418,-0.063206 -0.07224,-0.1264123 -0.01806,-0.072236 -0.01806,-0.1264123 z m 3.34089,0.4243841 q 0,-0.1896184 0.01806,-0.3431191 0.01806,-0.1625301 0.08127,-0.2708835 0.07224,-0.1173828 0.216707,-0.180589 0.144471,-0.063206 0.397296,-0.063206 0.243795,0 0.361178,0.1173828 0.126412,0.1083534 0.17156,0.2618541 0.04515,0.1444712 0.04515,0.2889424 0,0.1354417 0,0.1896184 v 0.379237 q 0,0.1535006 0.07223,0.2437951 0.08127,0.090294 0.207678,0.1444712 0.135442,0.045147 0.297972,0.063206 0.16253,0.018059 0.334089,0.018059 0.307002,0 0.478561,0.1715595 0.180589,0.1715596 0.180589,0.379237 0,0.2167068 -0.171559,0.3882663 -0.16253,0.1715596 -0.487591,0.1715596 -0.171559,0 -0.334089,0.027088 -0.16253,0.018059 -0.288943,0.072236 -0.126412,0.054177 -0.207677,0.1535007 -0.07224,0.090294 -0.07224,0.2437952 0,0.4966197 0,0.8668272 0,0.361178 0.01806,0.641091 0.02709,0.3340896 0.153501,0.4875903 0.126412,0.1535007 0.307001,0.2076774 0.180589,0.045147 0.379237,0.036118 0.207677,-0.00903 0.379237,0.00903 0.180589,0.018059 0.297972,0.099324 0.117383,0.072236 0.117383,0.2979718 0,0.2257363 -0.08127,0.3702075 -0.07224,0.1354418 -0.216707,0.2167068 -0.135442,0.072236 -0.32506,0.099324 -0.189619,0.027088 -0.406326,0.027088 -0.704297,0 -1.101593,-0.1173828 Q 31.054834,8.9537404 30.865215,8.5925623 30.675597,8.2223549 30.630449,7.563205 q -0.03612,-0.6681793 -0.03612,-1.7517134 0,-0.1896185 -0.117383,-0.279913 -0.108354,-0.090294 -0.243795,-0.1625301 -0.135442,-0.072236 -0.252825,-0.180589 -0.108353,-0.1173828 -0.108353,-0.361178 0,-0.1896184 0.05418,-0.2889424 0.05418,-0.099324 0.135442,-0.1625301 0.0903,-0.072236 0.189618,-0.1264123 0.09932,-0.054177 0.18059,-0.1535007 0.09029,-0.099324 0.144471,-0.261854 0.05418,-0.1715596 0.05418,-0.4514726 z"
     id="text1"
     aria-label="ribbit" />
</svg>
